<?xml version="1.0" encoding="UTF-8" standalone="no"?>
<svg
   version="1.1"
   id="svg7829"
   sodipodi:docname="brontosaurus.svg"
   width="512"
   height="512"
   inkscape:version="1.2.1 (9c6d41e4, 2022-07-14)"
   inkscape:export-filename="../images/brontosaurus.png"
   inkscape:export-xdpi="96"
   inkscape:export-ydpi="96"
   xmlns:inkscape="http://www.inkscape.org/namespaces/inkscape"
   xmlns:sodipodi="http://sodipodi.sourceforge.net/DTD/sodipodi-0.dtd"
   xmlns:xlink="http://www.w3.org/1999/xlink"
   xmlns="http://www.w3.org/2000/svg"
   xmlns:svg="http://www.w3.org/2000/svg">
  <defs
     id="defs7833">
    <linearGradient
       inkscape:collect="always"
       id="linearGradient10248">
      <stop
         style="stop-color:#d8fbff;stop-opacity:1;"
         offset="0"
         id="stop10244" />
      <stop
         style="stop-color:#73b6f7;stop-opacity:1;"
         offset="1"
         id="stop10246" />
    </linearGradient>
    <linearGradient
       id="linearGradient10200"
       inkscape:swatch="solid">
      <stop
         style="stop-color:#330000;stop-opacity:1;"
         offset="0"
         id="stop10198" />
    </linearGradient>
    <clipPath
       clipPathUnits="userSpaceOnUse"
       id="clipPath14496">
      <g
         inkscape:label="Clip"
         id="use14498" />
    </clipPath>
    <clipPath
       clipPathUnits="userSpaceOnUse"
       id="clipPath3156">
      <circle
         style="fill:#d78f00;stroke-width:0.377953;stop-color:#000000"
         id="circle3158"
         cx="256"
         cy="256"
         r="255"
         inkscape:label="Mask" />
    </clipPath>
    <clipPath
       clipPathUnits="userSpaceOnUse"
       id="clipPath3640">
      <circle
         style="display:inline;fill:#d78f00;stroke-width:0.377953;stop-color:#000000"
         id="circle3642"
         cx="256"
         cy="256"
         r="255"
         inkscape:label="Mask"
         sodipodi:insensitive="true" />
    </clipPath>
    <clipPath
       clipPathUnits="userSpaceOnUse"
       id="clipPath4563">
      <circle
         style="display:inline;fill:#d78f00;stroke-width:0.246245;stop-color:#000000"
         id="circle4565"
         cx="1060.1678"
         cy="-559.06421"
         r="166.13805"
         inkscape:label="Mask"
         sodipodi:insensitive="true"
         transform="scale(1,-1)" />
    </clipPath>
    <clipPath
       clipPathUnits="userSpaceOnUse"
       id="clipPath9033">
      <circle
         style="display:inline;fill:#d78f00;stroke-width:0.310085;stop-color:#000000"
         id="circle9035"
         cx="1086.217"
         cy="-543.19318"
         r="209.21024"
         inkscape:label="Mask"
         sodipodi:insensitive="true"
         transform="scale(1,-1)" />
    </clipPath>
    <clipPath
       clipPathUnits="userSpaceOnUse"
       id="clipPath9569">
      <circle
         style="display:inline;fill:#d78f00;stroke-width:0.377953;stop-color:#000000"
         id="circle9571"
         cx="256"
         cy="256"
         r="255"
         inkscape:label="Mask"
         sodipodi:insensitive="true" />
    </clipPath>
    <clipPath
       clipPathUnits="userSpaceOnUse"
       id="clipPath9698">
      <circle
         style="display:inline;fill:#d78f00;stroke-width:0.377953;stop-color:#000000"
         id="circle9700"
         cx="256"
         cy="256"
         r="255"
         inkscape:label="Mask"
         sodipodi:insensitive="true" />
    </clipPath>
    <linearGradient
       inkscape:collect="always"
       xlink:href="#linearGradient10248"
       id="linearGradient10250"
       x1="1085.2251"
       y1="-762.83508"
       x2="1092.2015"
       y2="-419.98654"
       gradientUnits="userSpaceOnUse" />
    <clipPath
       clipPathUnits="userSpaceOnUse"
       id="clipPath12935">
      <circle
         style="display:inline;fill:#d78f00;stroke-width:0.277013;stop-color:#000000"
         id="circle12937"
         cx="1075.5178"
         cy="-546.80048"
         r="186.89703"
         inkscape:label="Mask"
         sodipodi:insensitive="true"
         transform="scale(1,-1)" />
    </clipPath>
  </defs>
  <sodipodi:namedview
     id="namedview7831"
     pagecolor="#ffffff"
     bordercolor="#000000"
     borderopacity="0.25"
     inkscape:showpageshadow="2"
     inkscape:pageopacity="0.0"
     inkscape:pagecheckerboard="0"
     inkscape:deskcolor="#d1d1d1"
     showgrid="true"
     inkscape:zoom="1.04"
     inkscape:cx="160.09615"
     inkscape:cy="187.01923"
     inkscape:window-width="1920"
     inkscape:window-height="977"
     inkscape:window-x="1280"
     inkscape:window-y="23"
     inkscape:window-maximized="0"
     inkscape:current-layer="layer3"
     inkscape:document-units="in">
    <inkscape:grid
       type="xygrid"
       id="grid2325"
       spacingx="16"
       spacingy="16"
       empspacing="4"
       originx="0"
       originy="0" />
  </sodipodi:namedview>
  <metadata
     id="metadata5952">
Created by FontForge 20201107 at Fri Sep  9 18:26:23 2022
 By Unknown
Copyright 2013, 2022 Google Inc. All Rights Reserved.
</metadata>
  <missing-path
     horiz-adv-x="1000"
     vert-adv-y="2600"
     d="M104 0v1400h792v-1400h-792zM194 78h612v1244h-612v-1244z" />
  <g
     inkscape:groupmode="layer"
     id="layer3"
     inkscape:label="Layer 1"
     style="display:inline">
    <g
       id="g9102"
       transform="matrix(1.3643876,0,0,-1.3643876,-1211.4231,1002.0478)"
       style="display:inline"
       inkscape:label="Brontasaurous"
       clip-path="url(#clipPath12935)">
      <rect
         style="fill:url(#linearGradient10250);fill-opacity:1;stroke-width:0.277013;stop-color:#000000"
         id="rect10242"
         width="442.51382"
         height="349.82513"
         x="854.00159"
         y="-766.32336"
         transform="scale(1,-1)" />
      <path
         style="fill:#427f4d;fill-opacity:1;stroke-width:0.277013;stop-color:#000000"
         d="m 831.07859,425.46808 c 219.20831,49.97077 307.91331,37.00729 501.31631,-1.9933 l -1.9932,-110.62847 -506.29968,5.97991 z"
         id="path9756"
         sodipodi:nodetypes="ccccc" />
      <path
         style="display:inline;fill:#f5a357;fill-opacity:1;stroke-width:10.9183;stop-color:#000000"
         d="m 979.79978,665.03525 c 8.9111,23.40625 45.72122,21.21581 40.68112,-1.96847 21.9247,-16.7808 25.8542,-31.76208 -4.593,-43.30569 l -32.1512,-4.593 c -15.74423,-41.37822 34.1124,-80.33139 82.6746,-79.39394 76.7641,-2.31796 75.2175,-47.7625 110.889,-57.08481 18.2295,-2.47041 31.0913,18.03708 13.123,32.80731 l -27.5582,19.02831 c 28.1323,17.39161 97.7707,-31.2375 45.9303,-72.83238 -19.5731,-12.91639 -41.0819,-14.21814 -62.3341,-17.05984 l 1.3124,-36.08815 -43.3058,-1.96846 -4.593,32.80741 -46.5866,1.31227 -1.3122,-26.90203 c -17.9162,-10.90615 -34.7814,-13.93018 -49.2111,1.31227 l -0.6562,80.70622 c -90.31167,108.20599 -46.55437,153.19282 -22.30902,173.22298 z"
         id="path8357"
         sodipodi:nodetypes="cccccccccccccccccc" />
      <path
         id="u1F995"
         unicode="🦕"
         vert-adv-y="2600"
         d="m 1125.9009,394.43895 q -16.8132,0 -22.5577,3.0824 -5.7445,3.0824 -5.7445,10.0879 0,5.044 1.4711,8.1264 1.4712,3.0825 2.8723,6.375 1.4011,3.2926 1.4011,8.7569 -4.3434,-0.2802 -8.8269,-0.4203 -4.4835,-0.1401 -10.3682,-0.1401 -7.2857,0 -13.9409,0.2802 -6.6553,0.2802 -12.5399,0.8407 0.2802,-4.4836 0.4203,-8.897 0.1402,-4.4135 0.1402,-6.7954 0,-10.228 -8.6168,-15.6923 -8.6168,-5.4643 -22.4877,-5.4643 -13.3104,0 -22.1374,4.4835 -8.82686,4.4836 -8.82686,13.4506 0,5.7445 2.522,9.1772 2.52196,3.4327 5.88456,7.3558 3.3626,3.9231 5.8846,10.7885 2.522,6.8654 2.522,19.3352 -3.2225,3.5027 -6.6552,9.1071 -3.4327,5.6044 -5.9547,11.6292 -2.52196,6.0247 -3.50266,10.5082 -17.5138,17.5138 -30.1938,37.3394 -12.6799,19.8255 -19.4052,40.0014 -6.7253,20.1758 -6.7253,38.8105 0,21.717 9.3874,37.7596 9.3874,16.0426 26.9011,24.169 8.967,17.3737 26.20056,17.3737 9.5275,0 16.1827,-6.0247 6.6552,-6.0248 8.0563,-15.1319 8.6869,-4.6237 12.1896,-9.7377 3.5027,-5.114 3.5027,-12.5398 0,-12.3297 -8.2664,-19.9657 -8.2665,-7.636 -21.7171,-7.636 -16.53296,0 -22.41756,-2.522 -5.8846,-2.522 -5.8846,-9.1071 0,-12.4698 6.375,-23.8888 6.375,-11.419 17.23346,-20.386 10.8586,-8.9671 24.6594,-14.1511 13.8009,-5.1841 28.6525,-5.1841 h 8.967 q 27.1814,0 43.5743,-5.7446 16.3928,-5.7445 27.8819,-19.4753 l 7.0055,-8.4066 q 7.8462,-9.2472 12.9602,-14.1511 5.114,-4.9039 9.1772,-6.6552 4.0632,-1.7514 8.5467,-1.7514 6.7253,0 10.5082,3.4327 3.7831,3.4327 3.7831,9.4574 0,5.7445 -3.6429,9.4575 -3.6429,3.7129 -8.9671,6.1648 -5.3242,2.4519 -10.7184,4.5536 -5.3943,2.1017 -9.0371,4.6937 -3.6429,2.592 -3.6429,6.6552 0,4.7637 4.5536,7.5659 4.5536,2.8023 13.941,2.8023 15.5522,0 27.7418,-6.2349 12.1895,-6.2349 19.2651,-17.0935 7.0756,-10.8585 7.0756,-24.7294 0,-23.5385 -20.5261,-37.8998 -20.5262,-14.3613 -57.3751,-15.9025 1.4011,-8.2665 1.8214,-12.3997 0.4203,-4.1333 0.4203,-7.636 0,-13.5907 -5.9547,-17.7239 -5.9547,-4.1333 -23.0481,-4.1333 z m 0,10.9286 q 7.4259,0 11.2789,0.6305 3.853,0.6305 5.1841,2.9423 1.331,2.3118 1.331,7.3558 0,5.3241 -0.9808,11.6992 -0.9807,6.375 -3.7829,18.8448 40.6319,0 60.5275,11.0687 19.8956,11.0687 19.8956,32.2253 0,10.6484 -5.4642,19.2651 -5.4643,8.6168 -15.1319,13.7308 -9.6676,5.114 -22.2775,5.114 -2.2418,0 -4.9039,-0.2101 -2.6621,-0.2102 -2.6621,-1.0509 0,-0.4203 1.5412,-0.9807 1.5413,-0.5605 2.9424,-0.9808 14.5714,-4.3434 23.1882,-11.5591 8.6167,-7.2157 8.6167,-17.1635 0,-10.9286 -7.1456,-17.5137 -7.1456,-6.5852 -18.3544,-6.5852 -6.7253,0 -12.4698,2.3819 -5.7445,2.3819 -11.9794,8.1964 -6.2349,5.8146 -14.7816,16.0426 l -7.0055,8.4066 q -6.4451,7.7061 -14.7817,12.3998 -8.3365,4.6936 -19.9656,6.8654 -11.6291,2.1717 -28.1622,2.1717 h -8.967 q -17.2335,0 -33.066,6.0247 -15.8324,6.0247 -28.2322,16.4629 -12.39966,10.4382 -19.61526,23.8888 -7.2157,13.4506 -7.2157,28.1622 0,13.4505 10.158,18.0041 10.1579,4.5536 29.35296,4.5536 8.967,0 13.8709,4.5536 4.9038,4.5535 4.9038,12.1195 0,4.9038 -3.1524,8.5467 -3.1525,3.6429 -11.5591,8.1264 -0.9808,6.7253 -4.4135,11.2789 -3.4327,4.5535 -9.5975,4.5535 -11.76916,0 -17.79396,-14.9918 -16.2527,-6.445 -24.8695,-20.0357 -8.6168,-13.5907 -8.6168,-33.3462 0,-17.3737 6.5852,-36.4987 6.5852,-19.125 18.9148,-37.8998 12.3298,-18.7747 29.28296,-35.3077 1.261,-6.4451 5.3943,-15.6923 4.1332,-9.2473 12.9601,-20.0358 0,-14.2912 -2.662,-22.6978 -2.6621,-8.4066 -6.0948,-12.9602 -3.4327,-4.5536 -6.0948,-7.2857 -2.6621,-2.7322 -2.6621,-5.6745 0,-2.522 5.1841,-4.7637 5.184,-2.2418 14.5714,-2.2418 9.9478,0 14.7116,2.9423 4.7637,2.9423 4.7637,7.2857 v 27.7419 q 8.5467,-0.9808 17.8641,-1.6113 9.3173,-0.6305 19.6854,-0.6305 9.9478,0 16.7432,0.3502 6.7953,0.3503 13.3805,1.191 v -15.1319 q 0,-4.0632 -1.331,-7.0756 -1.3311,-3.0123 -2.7322,-5.6044 -1.4011,-2.592 -1.4011,-5.3942 0,-2.2418 3.4327,-3.2225 3.4327,-0.9808 13.6607,-0.9808 z m -123.8573,-0.1401 q -15.27196,0 -20.66616,1.9615 -5.3943,1.9615 -5.3943,7.8462 0,2.3818 2.2418,5.6744 2.2418,3.2926 8.9671,11.419 5.4642,6.5852 7.4258,20.8764 1.9615,14.2912 1.9615,38.6704 l 4.62366,2.522 17.6538,-32.2254 -3.923,-20.456 z m 86.1677,8.4066 q -8.8269,0 -12.1195,2.1717 -3.2926,2.1717 -3.2926,4.8338 0,3.2225 1.7514,6.0948 1.7514,2.8722 4.8338,4.9739 l 14.4313,6.8654 13.8709,-3.9231 2.6621,-10.6484 q -2.2417,-3.0824 -7.0055,-6.7252 -4.7637,-3.6429 -15.1319,-3.6429 z m -86.0276,230.0608 q -2.66206,0 -4.55356,1.8914 -1.8914,1.8915 -1.8914,4.5536 0,2.8022 1.8914,4.6236 1.8915,1.8215 4.55356,1.8215 2.6621,0 4.4836,-1.8215 1.8214,-1.8214 1.8214,-4.6236 0,-2.6621 -1.8214,-4.5536 -1.8215,-1.8914 -4.4836,-1.8914 z m 40.0715,-150.6184 q -3.3626,0 -5.7445,2.3819 -2.3819,2.3818 -2.3819,5.7445 0,3.3626 2.3819,5.7445 2.3819,2.3819 5.7445,2.3819 3.3626,0 5.7445,-2.3819 2.3819,-2.3819 2.3819,-5.7445 0,-3.3627 -2.3819,-5.7445 -2.3819,-2.3819 -5.7445,-2.3819 z m 50.4396,-15.4121 q -3.3626,0 -5.7445,2.3818 -2.3819,2.3819 -2.3819,5.7446 0,3.3626 2.3819,5.7445 2.3819,2.3819 5.7445,2.3819 3.3627,0 5.7446,-2.3819 2.3818,-2.3819 2.3818,-5.7445 0,-3.3627 -2.3818,-5.7446 -2.3819,-2.3818 -5.7446,-2.3818 z m -19.6154,23.8187 q -2.8022,0 -4.7637,1.9616 -1.9615,1.9615 -1.9615,4.7637 0,2.8022 1.9615,4.7637 1.9615,1.9616 4.7637,1.9616 2.8022,0 4.7638,-1.9616 1.9615,-1.9615 1.9615,-4.7637 0,-2.8022 -1.9615,-4.7637 -1.9616,-1.9616 -4.7638,-1.9616 z m 39.2309,-3.6429 q -2.522,0 -4.3435,1.8215 -1.8214,1.8214 -1.8214,4.3434 0,2.522 1.8214,4.3434 1.8215,1.8214 4.3435,1.8214 2.5219,0 4.3434,-1.8214 1.8214,-1.8214 1.8214,-4.3434 0,-2.522 -1.8214,-4.3434 -1.8215,-1.8215 -4.3434,-1.8215 z"
         style="display:inline;stroke-width:0.14011"
         inkscape:label="brontasorous" />
      <path
         style="fill:#ffee44;fill-opacity:1;stroke-width:0.277013;stop-color:#000000"
         d="m 1115.623,657.18986 -12.0844,8.96987 14.576,3.61287 -2.6162,14.94979 12.9565,-7.72406 8.8453,12.209 3.6128,-14.32689 14.4515,1.99331 -6.9766,-12.209 12.209,-9.34362 -14.576,-3.48828 2.4916,-14.20231 -12.5827,6.85199 -8.5962,-12.45816 -4.3603,14.9498 -14.0777,-2.24248 z"
         id="path10309"
         sodipodi:nodetypes="ccccccccccccccccc" />
      <ellipse
         style="fill:#fff488;fill-opacity:1;stroke-width:0.255182;stop-color:#000000"
         id="path12307"
         cx="1132.2954"
         cy="-660.96753"
         transform="scale(1,-1)"
         rx="16.672468"
         ry="16.48497" />
      <path
         id="path10306"
         unicode="☀"
         vert-adv-y="2600"
         d="m 1126.8548,630.99477 q -0.8843,0 -1.4555,0.58492 -0.5725,0.58492 -0.7415,1.55487 l -2.3396,12.61077 -11.555,-2.62499 q -1.312,-0.28487 -2.168,0.28488 -0.856,0.57044 -1.0415,1.61199 -0.1863,1.04134 0.5587,2.15401 l 6.5045,9.78616 -10.4424,6.59074 q -1.1126,0.71267 -1.3547,1.75456 -0.2415,1.04148 0.3172,1.94018 0.5588,0.89878 1.8404,1.12688 l 12.0116,2.08282 -2.7108,12.29679 q -0.2828,1.28387 0.2138,2.09697 0.4967,0.81289 1.4555,0.97036 0.9553,0.15589 2.0113,-0.58493 l 10.2707,-6.93292 6.8473,10.64202 q 0.4001,0.65666 0.9561,1.02707 0.5587,0.37109 1.1843,0.37109 0.8842,0 1.4837,-0.64218 0.6,-0.64217 0.7987,-1.61198 l 2.3107,-12.12558 12.4966,2.31099 q 1.683,0.31385 2.3824,-0.85586 0.6988,-1.16978 -0.2966,-2.6534 l -6.7618,-9.90018 10.4997,-6.79036 q 1.1126,-0.71364 1.3409,-1.74035 0.2276,-1.02714 -0.3311,-1.89728 -0.5587,-0.87015 -1.8403,-1.12695 l -11.9827,-2.19691 2.6246,-12.35389 q 0.2277,-0.97031 -0.3311,-1.72615 -0.5587,-0.75564 -1.4554,-0.98465 -0.8988,-0.22831 -1.7548,0.34213 l -10.214,6.87603 -6.9902,-10.78474 q -0.9415,-1.48356 -2.339,-1.48356 z m 0.4,2.68188 7.0474,10.89876 2.7673,0.8558 10.1852,-6.87582 q 0.1724,-0.11451 0.2828,-0.0821 0.1103,0.0276 0.069,0.28488 l -2.6253,12.46798 1.3127,2.02571 12.6103,2.311 q 0.3449,0.0621 0.3587,0.21383 0,0.15726 -0.3311,0.35661 l -10.6134,6.87603 -1.0272,2.48213 6.9046,10.09986 q 0.2553,0.34282 -0.2275,0.28488 l -11.5834,-2.11138 -2.7673,1.59778 -2.368,12.32527 q 0,0.14209 -0.097,0.15589 -0.069,0.007 -0.1311,-0.10209 l -6.7618,-10.49938 -3.3667,-0.74129 -10.1003,6.76187 q -0.1449,0.082 -0.2139,0.0414 -0.069,-0.0414 -0.069,-0.24211 l 2.7674,-12.52496 -1.2554,-2.22547 -12.7248,-2.19678 q -0.2829,-0.0276 -0.2829,-0.21382 0,-0.18486 0.2829,-0.38558 l 11.1273,-7.01861 0.4276,-2.25389 -6.8756,-10.38522 q -0.2552,-0.37109 -0.2,-0.48491 0.069,-0.1145 0.4,-0.0276 l 12.2117,2.76756 2.0542,-1.48362 2.4252,-12.92447 q 0.069,-0.19934 0.1586,-0.21383 0.097,-0.007 0.2139,0.18486 z m 4.907,9.1584 q -3.7371,0 -7.0038,1.38368 -3.2668,1.38388 -5.7203,3.83753 -2.4542,2.45364 -3.8379,5.72039 -1.3837,3.26681 -1.3837,7.00432 0,3.73758 1.3837,7.00433 1.3837,3.26682 3.8379,5.72046 2.4535,2.45365 5.7203,3.83739 3.2667,1.38367 7.0038,1.38367 3.7379,0 7.0047,-1.38367 3.2667,-1.38374 5.7202,-3.83739 2.4535,-2.45364 3.8379,-5.72046 1.3837,-3.26675 1.3837,-7.00433 0,-3.73751 -1.3837,-7.00432 -1.3844,-3.26675 -3.8379,-5.72039 -2.4535,-2.45365 -5.7202,-3.83753 -3.2668,-1.38368 -7.0047,-1.38368 z m 0,2.28252 q 3.253,0 6.0914,1.21254 2.8391,1.21255 4.9933,3.36663 2.154,2.154 3.3667,4.99289 1.2126,2.83881 1.2126,6.09134 0,3.25247 -1.2126,6.09136 -1.2127,2.8388 -3.3667,4.99282 -2.1542,2.15407 -4.9933,3.36662 -2.8384,1.21261 -6.0914,1.21261 -3.2522,0 -6.0913,-1.21261 -2.8384,-1.21255 -4.9925,-3.36662 -2.1542,-2.15402 -3.3668,-4.99282 -1.2126,-2.83889 -1.2126,-6.09136 0,-3.25253 1.2126,-6.09134 1.2126,-2.83889 3.3668,-4.99289 2.1541,-2.15408 4.9925,-3.36663 2.8391,-1.21254 6.0913,-1.21254 z"
         style="display:inline;stroke-width:0.0285308" />
    </g>
  </g>
</svg>
