<?xml version="1.0" encoding="UTF-8" standalone="no"?>
<svg
   version="1.1"
   id="svg7829"
   sodipodi:docname="bunny.svg"
   width="512"
   height="512"
   inkscape:version="1.2.1 (9c6d41e4, 2022-07-14)"
   inkscape:export-filename="../../dist/animals/bunny.png"
   inkscape:export-xdpi="96"
   inkscape:export-ydpi="96"
   xmlns:inkscape="http://www.inkscape.org/namespaces/inkscape"
   xmlns:sodipodi="http://sodipodi.sourceforge.net/DTD/sodipodi-0.dtd"
   xmlns:xlink="http://www.w3.org/1999/xlink"
   xmlns="http://www.w3.org/2000/svg"
   xmlns:svg="http://www.w3.org/2000/svg">
  <defs
     id="defs7833">
    <linearGradient
       id="linearGradient10200"
       inkscape:swatch="solid">
      <stop
         style="stop-color:#330000;stop-opacity:1;"
         offset="0"
         id="stop10198" />
    </linearGradient>
    <clipPath
       clipPathUnits="userSpaceOnUse"
       id="clipPath14496">
      <g
         inkscape:label="Clip"
         id="use14498" />
    </clipPath>
    <clipPath
       clipPathUnits="userSpaceOnUse"
       id="clipPath3156">
      <circle
         style="fill:#d78f00;stroke-width:0.377953;stop-color:#000000"
         id="circle3158"
         cx="256"
         cy="256"
         r="255"
         inkscape:label="Mask" />
    </clipPath>
    <clipPath
       clipPathUnits="userSpaceOnUse"
       id="clipPath3640">
      <circle
         style="display:inline;fill:#d78f00;stroke-width:0.377953;stop-color:#000000"
         id="circle3642"
         cx="256"
         cy="256"
         r="255"
         inkscape:label="Mask"
         sodipodi:insensitive="true" />
    </clipPath>
    <clipPath
       clipPathUnits="userSpaceOnUse"
       id="clipPath4563">
      <circle
         style="display:inline;fill:#d78f00;stroke-width:0.246245;stop-color:#000000"
         id="circle4565"
         cx="1060.1678"
         cy="-559.06421"
         r="166.13805"
         inkscape:label="Mask"
         sodipodi:insensitive="true"
         transform="scale(1,-1)" />
    </clipPath>
    <clipPath
       clipPathUnits="userSpaceOnUse"
       id="clipPath9033">
      <circle
         style="display:inline;fill:#d78f00;stroke-width:0.310085;stop-color:#000000"
         id="circle9035"
         cx="1086.217"
         cy="-543.19318"
         r="209.21024"
         inkscape:label="Mask"
         sodipodi:insensitive="true"
         transform="scale(1,-1)" />
    </clipPath>
    <clipPath
       clipPathUnits="userSpaceOnUse"
       id="clipPath9569">
      <circle
         style="display:inline;fill:#d78f00;stroke-width:0.377953;stop-color:#000000"
         id="circle9571"
         cx="256"
         cy="256"
         r="255"
         inkscape:label="Mask"
         sodipodi:insensitive="true" />
    </clipPath>
    <clipPath
       clipPathUnits="userSpaceOnUse"
       id="clipPath9698">
      <circle
         style="display:inline;fill:#d78f00;stroke-width:0.377953;stop-color:#000000"
         id="circle9700"
         cx="256"
         cy="256"
         r="255"
         inkscape:label="Mask"
         sodipodi:insensitive="true" />
    </clipPath>
    <clipPath
       clipPathUnits="userSpaceOnUse"
       id="clipPath12935">
      <circle
         style="display:inline;fill:#d78f00;stroke-width:0.277013;stop-color:#000000"
         id="circle12937"
         cx="1075.5178"
         cy="-546.80048"
         r="186.89703"
         inkscape:label="Mask"
         sodipodi:insensitive="true"
         transform="scale(1,-1)" />
    </clipPath>
    <linearGradient
       inkscape:collect="always"
       xlink:href="#linearGradient10726"
       id="linearGradient10728"
       x1="230.76923"
       y1="-4.8076944"
       x2="247.11539"
       y2="507.69229"
       gradientUnits="userSpaceOnUse"
       gradientTransform="translate(-8.6351962,2.8846162)" />
    <linearGradient
       inkscape:collect="always"
       id="linearGradient10726">
      <stop
         style="stop-color:#35a6e0;stop-opacity:1;"
         offset="0"
         id="stop10722" />
      <stop
         style="stop-color:#47bace;stop-opacity:1;"
         offset="1"
         id="stop10724" />
    </linearGradient>
    <clipPath
       clipPathUnits="userSpaceOnUse"
       id="clipPath14253">
      <circle
         style="display:inline;fill:#d78f00;stroke-width:0.377953;stop-color:#000000"
         id="circle14255"
         cx="256"
         cy="256"
         r="255"
         inkscape:label="Mask"
         sodipodi:insensitive="true" />
    </clipPath>
  </defs>
  <sodipodi:namedview
     id="namedview7831"
     pagecolor="#ffffff"
     bordercolor="#000000"
     borderopacity="0.25"
     inkscape:showpageshadow="2"
     inkscape:pageopacity="0.0"
     inkscape:pagecheckerboard="0"
     inkscape:deskcolor="#d1d1d1"
     showgrid="true"
     inkscape:zoom="0.73539105"
     inkscape:cx="214.17177"
     inkscape:cy="222.33069"
     inkscape:window-width="1920"
     inkscape:window-height="977"
     inkscape:window-x="1280"
     inkscape:window-y="23"
     inkscape:window-maximized="0"
     inkscape:current-layer="layer3"
     inkscape:document-units="in">
    <inkscape:grid
       type="xygrid"
       id="grid2325"
       spacingx="16"
       spacingy="16"
       empspacing="4"
       originx="0"
       originy="0" />
  </sodipodi:namedview>
  <metadata
     id="metadata5952">
Created by FontForge 20201107 at Fri Sep  9 18:26:23 2022
 By Unknown
Copyright 2013, 2022 Google Inc. All Rights Reserved.
</metadata>
  <missing-path
     horiz-adv-x="1000"
     vert-adv-y="2600"
     d="M104 0v1400h792v-1400h-792zM194 78h612v1244h-612v-1244z" />
  <g
     inkscape:groupmode="layer"
     id="layer3"
     inkscape:label="Layer 1">
    <g
       id="g13336"
       inkscape:label="bunny"
       clip-path="url(#clipPath14253)">
      <rect
         style="fill:url(#linearGradient10728);fill-opacity:1;stroke-width:0.377953;stop-color:#000000"
         id="rect10697"
         width="572.11536"
         height="550"
         x="-30.750582"
         y="-19.230766" />
      <path
         style="fill:#9d6b00;fill-opacity:1;stroke-width:0.377953;stop-color:#000000"
         d="m -46.135196,381.73077 c 345.192306,-43.26923 641.346156,0 641.346156,0 l -15.38462,165.38461 c 0,0 -665.384613,-1.92307 -659.615383,-4.80769 5.769231,-2.88462 33.653847,-160.57692 33.653847,-160.57692 z"
         id="path10784" />
      <path
         style="fill:#e8e8e8;stroke-width:0.377953;stop-color:#000000;fill-opacity:1"
         d="M 159.61538,437.5 162.5,402.88462 145.19231,339.42308 150,303.84615 118.26923,287.5 117.30769,243.26923 143.26923,214.42308 183.65385,162.5 l -7.69231,-67.307692 19.23077,-46.153846 33.65384,1.923076 c 0,0 13.46154,40.384616 15.38462,44.23077 1.92308,3.846154 2.88461,34.615382 2.88461,34.615382 l 11.53847,0.96154 57.6923,-51.923076 L 350,77.884615 l 18.26923,24.038465 -3.84615,31.73077 -25.96154,35.57692 -43.26923,33.65385 -16.34616,9.61538 7.69231,43.26923 37.5,16.34615 25.96154,25.96154 25,-4.80769 33.65385,14.42308 9.61538,30.76923 -5.76923,27.88461 -24.03846,18.26923 -23.07692,0.96154 -11.53847,37.5 L 325,444.23077 280.76923,450 l -23.07692,-10.57692 -14.42308,5.76923 -20.19231,7.69231 -20.1923,-8.65385 -15.38462,-3.84615 -21.15385,0.96153 z"
         id="path13338" />
      <path
         id="u1F407"
         unicode="ðŸ‡"
         vert-adv-y="2600"
         d="m 223.50679,462.2827 c -13.98307,0 -23.01112,-4.41213 -27.08415,-13.23639 -5.83743,2.57772 -11.94663,3.86658 -18.32761,3.86658 -8.55289,0 -15.54453,-1.86601 -20.97492,-5.59802 -5.43065,-3.73213 -8.14598,-8.51775 -8.14598,-14.35688 0,-4.61627 1.15432,-9.0966 3.46296,-13.44101 2.30858,-4.34339 3.46287,-10.24884 3.46287,-17.71634 0,-6.78796 -1.45996,-13.60999 -4.37987,-20.4661 -2.91997,-6.85596 -5.87294,-14.39059 -8.85893,-22.6039 -2.98838,-8.21389 -4.48257,-17.81909 -4.48257,-28.81558 0,-6.10913 0.68022,-12.96514 2.04067,-20.56803 -10.31749,-3.25767 -18.39495,-8.7219 -24.23238,-16.39267 -5.83812,-7.67045 -8.75718,-16.66469 -8.75718,-26.98272 0,-8.41733 2.03718,-16.80068 6.11155,-25.15003 4.07409,-8.34935 9.84396,-15.91804 17.30959,-22.70605 11.53994,-28.37401 27.15259,-46.63371 46.83795,-54.7791 -2.44579,-8.41731 -4.65183,-17.07204 -6.61812,-25.96417 -1.96783,-8.89279 -2.95174,-17.68338 -2.95174,-26.37177 0,-14.390839 2.00295,-27.016765 6.00884,-37.87778 4.00589,-10.861019 9.3684,-19.3121 16.08752,-25.353243 6.72019,-6.041121 14.08508,-9.061682 22.09468,-9.061682 11.40391,0 21.24667,6.48258 29.52829,19.44774 8.28147,12.964719 12.4222,30.308041 12.4222,52.029965 v 6.51515 l -0.41115,6.72064 c 13.03295,-16.42723 27.08449,-29.697864 42.15461,-39.811899 15.06921,-10.114613 29.45963,-15.17192 43.17127,-15.17192 11.13232,0 20.33024,3.903244 27.59376,11.709731 7.26303,7.806361 10.89455,17.750893 10.89455,29.833598 0,13.03279 -4.34432,26.2695 -13.03297,39.71014 -8.68877,13.44042 -19.88897,25.8964 -33.60061,37.36793 -13.71206,11.47186 -28.17053,21.00925 -43.3754,28.61218 2.30864,6.24457 3.80286,11.87852 4.48266,16.90185 0.68023,5.02331 1.02034,10.52156 1.02034,16.49475 11.81073,2.98833 23.04479,7.80788 33.70218,14.45863 10.65719,6.65251 19.58344,15.20559 26.77875,25.65922 5.70231,-2.30864 11.74384,-3.46296 18.12459,-3.46296 16.15584,0 29.49455,5.09105 40.01612,15.27316 10.52115,10.18199 15.78172,22.94366 15.78172,38.28499 0,15.74821 -5.36283,28.57767 -16.08848,38.4884 -10.72475,9.91062 -24.23262,14.86593 -40.52363,14.86593 -1.76685,8.55267 -3.83838,15.98537 -6.21459,22.29809 -2.3771,6.31309 -4.92269,11.16666 -7.63677,14.5607 -4.20667,5.15922 -10.01034,9.97876 -17.41101,14.45863 -7.39891,4.48044 -15.57855,8.1119 -24.53891,10.89439 -8.96035,2.78324 -17.9206,4.17486 -26.88073,4.17486 -8.68871,0 -16.05371,-1.18852 -22.095,-3.56557 -6.04109,-2.37706 -10.35142,-5.66914 -12.931,-9.87623 -3.80049,5.83716 -7.97521,10.07958 -12.52418,12.72727 -4.54854,2.64613 -10.21671,3.9692 -17.00452,3.9692 z M 84.827293,280.63416 77.903379,271.6746 c 2.714554,-2.03497 6.719568,-4.44493 12.015042,-7.22987 5.294147,-2.78313 10.656549,-5.26074 16.087199,-7.43281 -5.15879,0 -9.910288,0.2053 -14.254487,0.61591 -4.343612,0.41061 -7.873469,0.88479 -10.58957,1.42253 l -2.441499,-10.99655 c 10.453745,-2.03476 20.839501,-3.05214 31.157266,-3.05214 1.89712,0 3.8317,0.0685 5.80375,0.20558 1.96783,0.13705 3.83384,0.34235 5.59802,0.61591 l 1.22575,12.21878 c -6.92383,1.89803 -13.40651,4.91859 -19.44802,9.0617 -6.041072,4.14273 -12.116276,8.65687 -18.225612,13.54243 z m 75.347267,0.81468 c -2.71477,0 -5.19245,-1.01738 -7.43304,-3.05213 -2.24017,-2.03476 -3.70015,-4.54639 -4.37995,-7.53488 l 3.46296,-0.20557 c -0.27409,5.1587 -2.64974,7.73805 -7.12693,7.73805 -4.07437,0 -8.01168,-2.30789 -11.81195,-6.92368 l 5.29725,-5.49564 c 1.62773,1.49191 3.39335,2.23786 5.29687,2.23786 3.25784,0 4.88676,-2.3079 4.88676,-6.92369 h 5.09153 c 0,6.51659 2.03718,9.77488 6.11155,9.77488 1.62772,0 3.45949,-0.61143 5.49531,-1.83429 l 4.88644,8.14542 c -2.98838,2.71477 -6.24654,4.07215 -9.77448,4.07215 z m -10.38615,-16.29141 c -3.53124,-4.07425 -5.9749,-7.23078 -7.33098,-9.46957 -1.35603,-2.24017 -2.03404,-4.58211 -2.03404,-7.02582 0,-2.17169 0.88343,-3.25754 2.65028,-3.25754 1.90155,0 3.59869,0.9171 5.09144,2.7513 1.49302,1.83425 2.71592,3.76878 3.6687,5.80359 4.75171,-3.93742 8.82451,-5.90613 12.21838,-5.90613 2.17105,0 3.25658,1.01738 3.25658,3.05213 0,4.3435 -5.83791,9.0273 -17.51372,14.0514 z m 68.01701,26.47336 c -6.38125,-5.15923 -12.79614,-9.94481 -19.24468,-14.35672 -6.44855,-4.41181 -13.20254,-7.63609 -20.26198,-9.67282 l 1.83534,-9.57155 c 2.71451,-0.27409 5.3619,-0.4794 7.94218,-0.61592 2.57783,-0.13704 5.1572,-0.20556 7.73812,-0.20556 10.04676,0 19.48217,0.88275 28.30622,2.64826 l -2.4415,12.2183 c -3.39435,-0.67958 -6.72056,-1.2567 -9.97861,-1.73135 -3.25763,-0.47407 -6.65164,-0.71111 -10.18203,-0.71111 l 0.81494,-2.44317 c 4.20619,2.17169 8.17696,4.47964 11.91233,6.92384 3.73223,2.44547 7.49971,5.02508 11.30243,7.73884 z m 2.0374,-44.19049 c -2.98844,0 -5.56806,-1.52611 -7.73885,-4.57833 -2.17101,-3.05691 -3.25651,-6.75644 -3.25651,-11.0986 0,-4.20649 1.0855,-7.8042 3.25651,-10.79311 2.17101,-2.98835 4.75062,-4.48253 7.73885,-4.48253 3.12069,0 5.70006,1.49418 7.73812,4.48253 2.0363,2.98847 3.05445,6.58618 3.05445,10.79311 0,4.34365 -1.01815,8.04319 -3.05445,11.0986 -2.0363,3.05222 -4.61567,4.57833 -7.73812,4.57833 z m 3.66828,198.55099 c 4.88733,0 9.12996,-1.01735 12.72791,-3.05205 3.59534,-2.03476 6.54818,-5.42882 8.85853,-10.18219 2.85171,-5.70171 5.19367,-10.92847 7.0259,-15.68029 1.83313,-4.75182 5.46457,-9.09623 10.89432,-13.03322 l 7.73877,-5.70082 c -3.5313,-8.28125 -5.29695,-15.74794 -5.29695,-22.40008 0,-10.58951 3.25829,-20.16066 9.77488,-28.71344 6.51659,-8.55279 15.95202,-13.7118 28.3063,-15.47704 l 2.85233,15.88411 c -8.41659,0.9484 -14.72921,4.13875 -18.93785,9.57106 -4.21109,5.43076 -6.31664,12.49047 -6.31664,21.17913 0,4.07426 0.47375,8.35073 1.42124,12.82942 0.94968,4.48028 2.30707,9.09612 4.07216,13.84751 -7.87395,4.48023 -13.64392,8.7226 -17.30991,12.72711 -3.66381,4.00584 -5.49572,8.51996 -5.49572,13.54235 0,2.98855 1.69739,5.63591 5.09217,7.94209 3.39435,2.3087 9.77512,3.46305 19.1423,3.46305 6.78823,0 13.91579,-1.08585 21.3827,-3.25755 7.46696,-2.17165 14.35669,-5.05674 20.6692,-8.65528 6.31315,-3.59529 11.03095,-7.49847 14.15339,-11.70956 1.76685,-2.30864 3.87018,-6.75474 6.31,-13.33831 2.44553,-6.58415 4.75347,-17.00374 6.92383,-31.25877 2.30864,0.67959 4.58305,1.15376 6.82322,1.42252 2.24011,0.27409 4.44602,0.41114 6.61772,0.41114 11.9474,0 21.62066,-3.42803 29.01979,-10.28409 7.39892,-6.85595 11.09838,-15.78217 11.09838,-26.77866 0,-10.86105 -3.69946,-19.78749 -11.09838,-26.77931 -7.39913,-6.99167 -16.86876,-10.4875 -28.40891,-10.4875 -4.07395,0 -8.07875,0.47417 -12.01441,1.42252 3.53129,9.63909 6.07666,18.53137 7.63613,26.67684 1.55925,8.14586 2.33888,15.40906 2.33888,21.78961 h -14.25522 c 0,-7.19505 -1.1544,-14.93322 -3.4632,-23.21453 -2.30842,-8.28173 -5.63462,-16.76679 -9.97861,-25.45518 -3.66359,-7.33145 -8.99221,-14.08568 -15.98585,-20.26269 -6.99183,-6.17717 -14.79821,-11.13253 -23.41914,-14.86609 -8.62067,-3.73202 -17.20742,-5.59803 -25.76025,-5.59803 0,-10.1821 -0.64492,-19.85503 -1.93477,-29.01878 -1.28979,-9.16375 -3.90316,-18.02203 -7.84011,-26.57482 9.77464,-2.44536 20.09248,-7.09541 30.95352,-13.95014 10.86105,-6.85564 21.11109,-14.96726 30.75012,-24.33487 9.63839,-9.36717 17.47856,-19.17579 23.52049,-29.42586 6.04155,-10.25017 9.06233,-19.99107 9.06233,-29.22268 0,-7.60292 -2.07131,-13.712289 -6.21392,-18.328093 -4.14305,-4.615893 -9.47189,-6.92384 -15.9865,-6.92384 -6.92357,0 -14.79762,2.171697 -23.62215,6.515092 -8.82453,4.343513 -17.9205,10.690401 -27.28789,19.040661 -9.36787,8.34936 -18.46393,18.53142 -27.28819,30.54619 -8.82432,12.01484 -16.76644,25.69271 -23.82636,41.03362 l -9.16361,-2.64861 c 2.98839,-9.77459 5.39802,-20.43179 7.22891,-31.9716 1.83313,-11.53993 2.7497,-23.89425 2.7497,-37.06296 0,-16.019713 -2.57961,-29.22239 -7.73884,-39.608033 -5.15875,-10.385873 -11.13213,-15.578809 -17.92015,-15.578809 -7.33108,0 -13.84764,5.328686 -19.54967,15.986059 -5.70187,10.657038 -8.55281,23.995689 -8.55281,40.015953 0,7.60237 1.01815,16.08721 3.05445,25.45451 2.03631,9.36759 5.2946,21.11116 9.77488,35.23071 -10.99644,2.57774 -20.87301,8.27942 -29.62971,17.10504 -8.75606,8.82474 -16.39273,21.85791 -22.91002,39.09951 -6.65192,5.43074 -11.81077,11.47214 -15.47655,18.12421 -3.66355,6.65209 -5.49532,13.30442 -5.49532,19.95699 0,8.55278 2.78311,15.91773 8.34932,22.09484 5.56621,6.17765 13.71193,9.26647 24.43716,9.26647 5.15853,0 10.58884,-0.74595 16.29093,-2.23785 5.56643,2.17148 11.26838,3.73185 17.10585,4.68111 5.83791,0.94835 12.08282,1.42252 18.73475,1.42252 14.66245,0 28.64597,-4.00491 41.95056,-12.01473 l 7.33098,12.62601 c -15.47672,9.09569 -31.9039,13.64353 -49.28154,13.64353 -12.48983,0 -24.50461,-2.44366 -36.04433,-7.33097 -2.17101,0.41061 -4.547,0.78485 -7.12798,1.12272 -2.57755,0.31995 -5.63198,0.47993 -9.16328,0.47993 -0.54328,3.39446 -0.91653,6.41503 -1.11976,9.0617 -0.17651,2.64635 -0.26476,6.34589 -0.26476,11.09861 0,7.05939 1.01815,13.9154 3.05445,20.56802 2.0363,6.65214 4.00512,12.55758 5.90645,17.71633 1.90161,5.02336 3.76762,10.4878 5.59803,16.39333 1.83313,5.90579 2.74969,11.84549 2.74969,17.81911 0,5.83727 -1.12008,11.33552 -3.36025,16.49475 -2.24011,5.1588 -3.36017,8.89225 -3.36017,11.20036 0,1.90245 1.12006,3.46281 3.36017,4.6811 2.24017,1.22266 5.46447,1.83399 9.6729,1.83399 3.80069,0 6.99129,-1.18848 9.57178,-3.56543 2.57761,-2.377 5.32672,-6.51768 8.24733,-12.42203 2.91992,-5.90573 6.61935,-14.15309 11.0983,-24.74207 l 11.60758,4.88644 c -3.39457,7.05939 -6.07587,13.40624 -8.04392,19.04055 -1.96783,5.63415 -2.95175,10.82692 -2.95175,15.57831 0,3.6637 1.35739,6.34509 4.07216,8.04416 2.71455,1.69747 6.65152,2.5462 11.81091,2.5462 z"
         style="display:inline;stroke-width:0.203642"
         inkscape:label="bunny"
         sodipodi:nodetypes="ccssscsccsccsccccsscscscccscscscccccscsccccccsscccccccccccsccccccccccsccsccsccccccssccsscccccccsccccccccscscscscsccccccsscccscccscsscccccssscscccccccccsccccscsccscccscssscccccscsccsccsccccscccscscscccccsccc" />
      <path
         id="path14190"
         unicode="ðŸ‡"
         vert-adv-y="2600"
         d="m 276.05107,180.8497 c -4.48049,0 -6.72074,-1.96866 -6.72074,-5.90598 0,-4.20673 2.20604,-9.73902 6.61812,-16.59687 4.41181,-6.85548 9.8423,-13.77922 16.29149,-20.77122 6.44859,-6.99153 12.82946,-12.89719 19.14261,-17.71697 6.31251,-4.81935 11.36945,-7.22902 15.17084,-7.22902 4.48051,0 6.72076,1.96867 6.72076,5.906 0,4.21127 -2.20602,9.74355 -6.61805,16.59684 -4.41181,6.85597 -9.84233,13.77978 -16.29157,20.77141 -6.44855,6.99187 -12.8292,12.89747 -19.14197,17.71682 -6.31293,4.81977 -11.3701,7.22965 -15.17149,7.22965 z"
         style="display:inline;fill:#ca839c;fill-opacity:1;stroke-width:0.203642"
         inkscape:label="bunny"
         sodipodi:nodetypes="csccsssccccc" />
      <path
         id="path14215"
         unicode="ðŸ‡"
         vert-adv-y="2600"
         d="m 214.33171,152.81683 c -2.51445,2.50492 -4.77274,2.54268 -6.77486,0.1133 -2.13911,-2.59562 -3.71424,-7.24247 -4.72538,-13.94053 -1.01008,-6.69646 -1.4832,-14.00454 -1.41934,-21.92426 0.0638,-7.91911 0.6417,-15.13035 1.7338,-21.633731 1.09196,-6.502753 2.7046,-10.816745 4.83795,-12.941993 2.51445,-2.504924 4.77275,-2.542684 6.77487,-0.113291 2.14142,2.598417 3.71657,7.24524 4.72542,13.940464 1.01032,6.696751 1.48346,14.004901 1.41937,21.924421 -0.0635,7.91929 -0.64141,15.13038 -1.73351,21.63329 -1.09198,6.50324 -2.70465,10.81749 -4.83798,12.94273 z"
         style="display:inline;fill:#ca839c;fill-opacity:1;stroke-width:0.161707"
         inkscape:label="bunny"
         sodipodi:nodetypes="csccsssccccc" />
    </g>
  </g>
</svg>
