<?xml version="1.0" encoding="UTF-8" standalone="no"?>
<svg
   version="1.1"
   id="svg7829"
   sodipodi:docname="cat.svg"
   width="512"
   height="512"
   inkscape:version="1.2.1 (9c6d41e4, 2022-07-14)"
   inkscape:export-filename="../../dist/animals/cat.png"
   inkscape:export-xdpi="96"
   inkscape:export-ydpi="96"
   xmlns:inkscape="http://www.inkscape.org/namespaces/inkscape"
   xmlns:sodipodi="http://sodipodi.sourceforge.net/DTD/sodipodi-0.dtd"
   xmlns:xlink="http://www.w3.org/1999/xlink"
   xmlns="http://www.w3.org/2000/svg"
   xmlns:svg="http://www.w3.org/2000/svg">
  <defs
     id="defs7833">
    <linearGradient
       inkscape:collect="always"
       id="linearGradient10726">
      <stop
         style="stop-color:#35a6e0;stop-opacity:1;"
         offset="0"
         id="stop10722" />
      <stop
         style="stop-color:#47bace;stop-opacity:1;"
         offset="1"
         id="stop10724" />
    </linearGradient>
    <linearGradient
       id="linearGradient10200"
       inkscape:swatch="solid">
      <stop
         style="stop-color:#330000;stop-opacity:1;"
         offset="0"
         id="stop10198" />
    </linearGradient>
    <clipPath
       clipPathUnits="userSpaceOnUse"
       id="clipPath14496">
      <g
         inkscape:label="Clip"
         id="use14498" />
    </clipPath>
    <clipPath
       clipPathUnits="userSpaceOnUse"
       id="clipPath3156">
      <circle
         style="fill:#d78f00;stroke-width:0.377953;stop-color:#000000"
         id="circle3158"
         cx="256"
         cy="256"
         r="255"
         inkscape:label="Mask" />
    </clipPath>
    <clipPath
       clipPathUnits="userSpaceOnUse"
       id="clipPath3640">
      <circle
         style="display:inline;fill:#d78f00;stroke-width:0.377953;stop-color:#000000"
         id="circle3642"
         cx="256"
         cy="256"
         r="255"
         inkscape:label="Mask"
         sodipodi:insensitive="true" />
    </clipPath>
    <clipPath
       clipPathUnits="userSpaceOnUse"
       id="clipPath4563">
      <circle
         style="display:inline;fill:#d78f00;stroke-width:0.246245;stop-color:#000000"
         id="circle4565"
         cx="1060.1678"
         cy="-559.06421"
         r="166.13805"
         inkscape:label="Mask"
         sodipodi:insensitive="true"
         transform="scale(1,-1)" />
    </clipPath>
    <clipPath
       clipPathUnits="userSpaceOnUse"
       id="clipPath9033">
      <circle
         style="display:inline;fill:#d78f00;stroke-width:0.310085;stop-color:#000000"
         id="circle9035"
         cx="1086.217"
         cy="-543.19318"
         r="209.21024"
         inkscape:label="Mask"
         sodipodi:insensitive="true"
         transform="scale(1,-1)" />
    </clipPath>
    <clipPath
       clipPathUnits="userSpaceOnUse"
       id="clipPath9569">
      <circle
         style="display:inline;fill:#d78f00;stroke-width:0.377953;stop-color:#000000"
         id="circle9571"
         cx="256"
         cy="256"
         r="255"
         inkscape:label="Mask"
         sodipodi:insensitive="true" />
    </clipPath>
    <clipPath
       clipPathUnits="userSpaceOnUse"
       id="clipPath9698">
      <circle
         style="display:inline;fill:#d78f00;stroke-width:0.377953;stop-color:#000000"
         id="circle9700"
         cx="256"
         cy="256"
         r="255"
         inkscape:label="Mask"
         sodipodi:insensitive="true" />
    </clipPath>
    <clipPath
       clipPathUnits="userSpaceOnUse"
       id="clipPath12935">
      <circle
         style="display:inline;fill:#d78f00;stroke-width:0.277013;stop-color:#000000"
         id="circle12937"
         cx="1075.5178"
         cy="-546.80048"
         r="186.89703"
         inkscape:label="Mask"
         sodipodi:insensitive="true"
         transform="scale(1,-1)" />
    </clipPath>
    <linearGradient
       inkscape:collect="always"
       xlink:href="#linearGradient10726"
       id="linearGradient10728"
       x1="230.76923"
       y1="-4.8076944"
       x2="247.11539"
       y2="507.69229"
       gradientUnits="userSpaceOnUse" />
    <clipPath
       clipPathUnits="userSpaceOnUse"
       id="clipPath12495">
      <circle
         style="display:inline;fill:#d78f00;stroke-width:0.377953;stop-color:#000000"
         id="circle12497"
         cx="256"
         cy="256"
         r="255"
         inkscape:label="Mask"
         sodipodi:insensitive="true" />
    </clipPath>
  </defs>
  <sodipodi:namedview
     id="namedview7831"
     pagecolor="#ffffff"
     bordercolor="#000000"
     borderopacity="0.25"
     inkscape:showpageshadow="2"
     inkscape:pageopacity="0.0"
     inkscape:pagecheckerboard="0"
     inkscape:deskcolor="#d1d1d1"
     showgrid="true"
     inkscape:zoom="1.04"
     inkscape:cx="161.05769"
     inkscape:cy="241.82692"
     inkscape:window-width="1920"
     inkscape:window-height="977"
     inkscape:window-x="1280"
     inkscape:window-y="23"
     inkscape:window-maximized="0"
     inkscape:current-layer="layer3"
     inkscape:document-units="in">
    <inkscape:grid
       type="xygrid"
       id="grid2325"
       spacingx="16"
       spacingy="16"
       empspacing="4"
       originx="0"
       originy="0" />
  </sodipodi:namedview>
  <metadata
     id="metadata5952">
Created by FontForge 20201107 at Fri Sep  9 18:26:23 2022
 By Unknown
Copyright 2013, 2022 Google Inc. All Rights Reserved.
</metadata>
  <missing-path
     horiz-adv-x="1000"
     vert-adv-y="2600"
     d="M104 0v1400h792v-1400h-792zM194 78h612v1244h-612v-1244z" />
  <g
     inkscape:groupmode="layer"
     id="layer3"
     inkscape:label="Layer 1">
    <g
       id="g8875"
       inkscape:label="cat"
       clip-path="url(#clipPath12495)">
      <rect
         style="fill:url(#linearGradient10728);fill-opacity:1;stroke-width:0.377953;stop-color:#000000"
         id="rect10697"
         width="572.11536"
         height="550"
         x="-22.115385"
         y="-22.115385" />
      <path
         style="fill:#9d6b00;fill-opacity:1;stroke-width:0.377953;stop-color:#000000"
         d="m -27.884615,389.42308 c 345.192305,-43.26923 641.346155,0 641.346155,0 l -15.38462,165.38461 c 0,0 -665.384612,-1.92307 -659.615382,-4.80769 5.769231,-2.88462 33.653847,-160.57692 33.653847,-160.57692 z"
         id="path10784" />
      <path
         style="fill:#e6e2d8;stroke-width:0.377953;stop-color:#000000;fill-opacity:1"
         d="m 198.53383,448.06093 c 0,-4.07946 -23.79687,-93.82763 -23.79687,-93.82763 l -15.63793,-89.74817 212.81194,27.87633 -7.47901,65.27139 -2.03973,85.66871 -46.23391,1.35982 -21.75713,-72.75041 c 0,0 -42.15444,-3.39955 -42.15444,0.67991 0,4.07946 -4.07947,76.82987 -4.07947,76.82987 z"
         id="path8926" />
      <path
         style="fill:#828282;fill-opacity:1;stroke-width:0.377953;stop-color:#000000"
         d="m 164.53831,270.60433 -61.87184,-48.95355 5.43928,-50.31337 23.11695,-10.19865 26.51651,-38.75489 55.75265,-6.79911 42.83435,-53.033006 23.11695,42.834356 12.9183,71.39059 -7.47902,47.59372 -15.63793,27.19642 80.22942,2.71964 c 38.45122,-6.3645 44.7589,-24.30067 38.07498,-46.91382 -50.86151,-49.1443 -14.12607,-42.37565 17.67767,-38.75489 34.99147,23.25799 48.77093,93.50505 -27.87633,123.06378 -16.01078,70.86927 -7.8449,123.47053 -29.92439,83.3378 -4.05719,-7.37453 -24.20338,-39.59034 -66.62288,-33.70434 -73.12763,10.14695 -44.27524,-66.6572 -116.26467,-70.71068 z"
         id="path8871"
         sodipodi:nodetypes="cccccccccccccccssc" />
      <path
         id="u1F408"
         unicode="ðŸˆ"
         vert-adv-y="2600"
         d="m 222.33371,464.01384 q -15.10835,0 -23.15258,-5.19626 -8.044,-5.20227 -8.044,-14.8128 0,-6.86743 3.03864,-15.89226 3.03856,-9.02543 3.03856,-14.91166 v -29.03765 q -20.20919,-13.14477 -31.78482,-32.07844 -11.57602,-18.93313 -11.57602,-46.98958 0,-4.31917 0.46316,-12.55777 0.46241,-8.24002 1.86408,-18.24689 l -33.35358,-23.93587 q -14.32288,-10.39884 -21.68093,-19.71859 -7.357028,-9.31906 -6.573804,-18.73677 l 3.534319,-37.47446 q 0.593417,-6.27734 4.411345,-9.12308 3.8241,-2.85029 8.7302,-4.31886 4.9058,-1.46818 9.22203,-2.94276 4.31879,-1.47143 5.88855,-4.60902 7.06372,-14.71508 17.75625,-24.72164 10.69316,-10.00564 24.91732,-15.00909 14.22454,-5.00443 31.88285,-5.00443 h 3.43561 q 0,0 3.62618,0.39612 12.16426,-22.759384 25.50563,-37.964136 13.3423,-15.205676 22.95598,-15.205676 8.43651,0 15.30371,9.809355 6.86643,9.810589 12.06624,25.996473 5.20226,16.187184 8.2409,35.708784 3.03857,19.52223 3.62619,39.14217 2.15762,5.69033 3.43569,13.53766 1.27352,7.84833 1.27352,15.5003 0,14.91051 -5.88793,26.97706 -5.88824,12.06654 -13.93032,22.66105 9.80997,-3.53395 17.06945,-5.19588 7.25908,-1.66932 15.49999,-1.66932 10.20224,0 21.68022,2.55342 11.478,2.55344 19.91419,6.47487 13.93062,-1.96295 21.67992,-9.61431 7.75031,-7.65204 7.75031,-17.26534 0,-7.0631 -5.10332,-11.57571 -5.1037,-4.50999 -11.67428,-8.63278 -6.57381,-4.12127 -11.67335,-9.71203 -5.1037,-5.59137 -5.1037,-14.61681 0,-9.22204 6.67084,-15.69628 6.67084,-6.47455 20.01282,-6.47455 15.5,0 30.11681,8.24029 14.61681,8.24021 24.13247,23.2503 9.51573,15.00908 9.51573,35.41355 0,17.65853 -8.044,33.94337 -8.04392,16.28452 -21.5822,27.95818 -13.53796,11.67339 -30.41105,15.99025 1.57031,9.02482 1.57031,16.28452 0,11.57633 -3.13751,20.11055 -3.13753,8.53453 -6.27727,14.71507 -3.13752,6.17839 -3.13752,11.08612 v 74.35943 q 0,12.55715 -9.80935,19.12965 -9.80997,6.57351 -25.89914,6.57351 -13.73394,0 -21.38629,-5.19556 -7.65105,-5.20267 -7.65105,-15.99021 0,-6.86721 2.15763,-11.28171 2.15769,-4.41781 4.2199,-9.22111 2.05867,-4.80684 2.05867,-12.65518 0,-5.69064 -1.864,-14.42113 -1.86399,-8.73051 -4.21983,-16.77505 -10.20255,2.94284 -22.36719,4.12118 -12.16388,1.18104 -27.27099,1.57037 v 56.70191 q 0,11.9679 -8.04423,19.12934 -8.04424,7.16175 -27.66457,7.16175 z m -46.89216,-19.22768 q -9.22142,0 -12.94941,-1.76828 -3.72546,-1.7682 -3.72546,-6.67084 0,-4.12088 2.74811,-9.41701 2.74809,-5.30161 5.39377,-10.20324 2.64922,-4.90549 2.64922,-7.84764 v -55.13276 l 36.29643,32.76595 -3.53402,51.79703 q -7.65196,6.47486 -26.87964,6.47486 z M 72.8286,232.30124 66.55165,222.49065 q 8.631867,-4.7082 17.657615,-8.63249 9.025438,-3.92304 18.442835,-7.65203 l 3.13752,11.5757 q -8.829163,3.33665 -17.069378,6.96507 -8.239906,3.6262 -15.891941,7.55434 z M 60.271843,209.34526 56.546007,199.33869 q 10.398914,-3.33604 21.484329,-5.88762 11.085022,-2.55344 23.446194,-4.51029 l 2.35237,10.79048 q -11.771929,1.37247 -22.562413,3.8241 -10.791484,2.45448 -20.993716,5.78928 z M 294.33854,442.23558 q -5.88784,0 -9.51534,-1.76828 -3.6265,-1.7682 -3.6265,-6.07936 0,-3.33603 2.45448,-7.25978 2.45448,-3.92328 4.90549,-8.82876 2.45447,-4.9058 2.45447,-10.98747 0,-16.87338 -0.68665,-25.80049 -0.68589,-8.92679 -1.66925,-13.6353 l 20.79804,-4.51006 10.20193,34.72736 -8.82914,38.25868 q -2.55344,2.74818 -6.67084,4.31886 -4.12127,1.57038 -9.80997,1.57038 z M 100.29627,183.25106 q -7.259476,-0.97981 -14.616817,-1.36923 -7.357424,-0.39611 -14.813107,-0.39611 h -6.079433 q 0,0 -4.707886,0.19189 v -10.79142 q 1.768283,-0.19188 4.707886,-0.19188 h 6.079433 q 7.455683,0 17.461944,0.5934 10.005642,0.59649 17.26535,1.57038 z m 8.4365,47.08753 -0.39612,-11.9679 q 10.98707,0 18.5411,-2.55343 7.55308,-2.55342 13.24372,-8.63256 l 8.4362,8.04401 q -6.67085,7.84825 -17.56028,11.47799 -10.88913,3.6265 -22.26848,3.6265 z m 1.57037,-20.99333 q -2.35236,-6.86714 -2.35236,-14.32251 0,-5.88793 1.46826,-10.00656 1.47134,-4.12126 5.59138,-9.22111 9.02575,2.15762 16.6774,5.88823 7.65166,3.72514 7.65166,8.24052 0,2.94285 -4.41743,5.10371 -4.41102,2.15761 -10.1049,4.21952 -5.69002,2.05874 -10.1039,4.41812 -4.41142,2.35228 -4.41142,5.68994 z m 91.23322,40.2217 q -4.12097,-10.00695 -10.20263,-20.30745 -6.07936,-10.29965 -14.1259,-20.50281 l 5.69002,-9.22141 q 8.43657,8.24028 15.40234,18.93304 6.96478,10.69316 14.22386,26.38944 z m 23.93679,-17.85458 q -9.61399,-7.456 -21.38661,-13.04745 -11.7716,-5.59168 -24.32844,-8.73043 l 3.13751,-10.39921 q 13.93061,3.13751 25.80026,8.53483 11.86995,5.39354 23.2499,13.63569 z m -56.11388,-42.18336 q -4.31887,0 -6.76819,-3.23778 -2.45454,-3.23738 -2.45454,-7.55432 0,-6.47486 4.80714,-12.26191 4.80654,-5.78927 10.69285,-5.78927 4.31886,0 6.76886,3.23747 2.45448,3.23746 2.45448,7.5537 0,6.86651 -4.70789,12.45881 -4.70789,5.59107 -10.79118,5.59107 z m 17.26626,20.20881 -3.72545,-10.20254 q 11.18375,-3.72546 24.52543,-6.07906 13.34137,-2.35236 22.36643,-2.35236 l 0.59341,11.77161 q -10.79111,0 -22.95567,1.86399 -12.1645,1.864 -20.79706,5.00445 z m 35.7088,238.58003 q 11.96798,0 15.99028,-2.45447 4.02193,-2.45448 4.02193,-7.94598 v -72.59469 q 1.57038,0.19111 3.33642,0.19111 h 4.31878 q 23.15165,0 41.49646,-2.64922 18.34458,-2.64914 27.36964,-6.96515 4.12095,11.57571 6.3759,24.52481 2.25341,12.94942 2.25341,22.75939 0,10.7914 -2.05866,16.97133 -2.05875,6.17839 -4.22022,9.90862 -2.15762,3.72515 -2.15762,7.25939 0,4.70789 4.50999,6.27704 4.51029,1.57029 10.79078,1.57029 8.63287,0 14.32251,-2.05867 5.69002,-2.05874 5.69002,-5.98687 v -78.28533 q 0,-5.10333 3.13751,-11.08573 3.13759,-5.98048 6.27765,-14.51848 3.13751,-8.53522 3.13751,-21.09198 0,-5.2946 -0.8841,-11.37912 -0.8841,-6.07936 -3.03856,-13.1457 18.83533,-3.13751 32.8636,-12.75316 14.02887,-9.614 21.77856,-23.64187 7.74968,-14.02856 7.74968,-30.50938 0,-15.30301 -6.67053,-26.87965 -6.67114,-11.57571 -17.36398,-17.95162 -10.69347,-6.37652 -22.46476,-6.37652 -6.07944,0 -9.31976,2.35229 -3.23739,2.35236 -3.23739,5.2949 0,4.12088 5.10362,7.84795 5.10339,3.72514 11.67336,8.33824 6.57381,4.60863 11.67396,11.08573 5.10371,6.47486 5.10371,16.08854 0,10.79017 -5.9875,20.30652 -5.98687,9.51597 -16.57845,15.59764 -10.5952,6.07974 -24.72142,7.06403 -7.06279,-3.92297 -18.24686,-6.67177 -11.18274,-2.74817 -21.58188,-2.74817 -10.20255,0 -19.22799,3.13759 -9.02513,3.13752 -17.06944,6.67177 -6.67084,2.94284 -10.88844,4.41072 -4.22052,1.47142 -7.94627,1.47142 -4.7079,0 -7.65167,-2.64915 -2.94285,-2.64921 -2.94285,-6.96484 0,-3.72514 2.25342,-6.86713 2.25341,-3.13751 7.16145,-6.86743 10.39883,-7.84765 16.57876,-15.89195 6.17838,-8.04424 8.92709,-16.67679 2.74811,-8.63287 2.74811,-18.24717 0,-5.69033 -0.88411,-11.9679 -0.8841,-6.27734 -3.6268,-15.30401 0,-13.73364 -2.45448,-30.31209 -2.45447,-16.57915 -6.17839,-31.68618 -3.72545,-15.108341 -7.9459,-24.918312 -4.2199,-9.809972 -7.74999,-9.809972 -1.96295,0 -7.06349,5.492422 -5.10331,5.492422 -11.18275,13.93023 -6.07905,8.436578 -11.57625,17.657612 -5.4925,9.22142 -8.23998,16.67779 -4.7079,-0.39612 -9.71264,-0.68666 -5.00467,-0.25509 -8.73043,-0.25509 -20.99372,0 -36.00281,9.12308 -15.0097,9.12371 -24.23111,28.35138 -2.7481,5.69033 -8.73112,7.25947 -5.98689,1.57029 -11.18276,3.72545 -5.20234,2.15762 -5.98718,9.41771 l -2.94284,29.62651 q -0.78515,6.86744 6.76817,13.63561 7.5547,6.76917 22.85772,17.75656 l 31.58823,22.5631 q -0.98313,9.02512 -1.46827,21.38571 -0.46317,12.36079 -0.46317,17.85452 0,18.44253 5.10371,30.1168 5.10332,11.67336 14.02787,19.22768 8.92719,7.55403 20.50281,13.83191 l 4.12127,44.93021 q 0.78515,7.25939 -3.82441,14.3225 -4.60863,7.0631 -4.60863,11.57571 0,5.10362 3.92306,7.16144 3.92297,2.05867 13.53796,2.05867 z m 63.56865,-147.1505 q -3.72577,0 -5.78921,-2.45447 -2.05875,-2.45449 -2.05875,-6.1784 v -41.59475 h 15.69597 v 41.59475 q 0,3.72553 -2.05874,6.1784 -2.05866,2.45447 -5.78927,2.45447 z m 37.27824,-3.92335 q -3.72545,0 -5.78897,-2.45449 -2.05867,-2.45447 -2.05867,-6.17831 v -41.5939 h 15.69597 v 41.5939 q 0,3.72577 -2.05874,6.17831 -2.05867,2.45449 -5.78928,2.45449 z M 146.99246,137.34003 q -1.96611,-2.7481 -2.8439,-8.14156 -0.88411,-5.39387 -0.88411,-12.26291 0,-12.1645 2.45448,-25.898522 2.45448,-13.733943 6.67084,-23.446196 4.21983,-9.71202 9.51566,-9.71202 6.07974,0 16.77512,14.617739 10.69377,14.616505 22.07281,42.868999 l -29.82218,7.2597 z m 110.2649,21.38599 q -2.35237,0 -6.57382,-3.72515 -4.2199,-3.72575 -8.73081,-7.65234 -4.31886,-3.92297 -8.044,-6.57382 -3.72546,-2.64915 -3.72546,-4.60863 0,-2.35229 2.55344,-7.84856 2.55343,-5.49242 6.178,-11.67336 3.62658,-6.17838 6.8672,-10.49716 3.2377,-4.31879 4.60925,-4.31879 2.35236,0 4.80653,7.06311 2.45448,7.0631 4.12118,16.87307 1.66934,9.80998 1.66934,18.24648 0,14.71515 -3.72546,14.71515 z"
         style="display:inline;stroke-width:0.196201"
         inkscape:label="cat" />
    </g>
  </g>
</svg>
