<?xml version="1.0" encoding="UTF-8" standalone="no"?>
<svg
   version="1.1"
   id="svg7829"
   sodipodi:docname="dog.svg"
   width="512"
   height="512"
   inkscape:version="1.2.1 (9c6d41e4, 2022-07-14)"
   inkscape:export-filename="../../dist/animals/dog.png"
   inkscape:export-xdpi="96"
   inkscape:export-ydpi="96"
   xmlns:inkscape="http://www.inkscape.org/namespaces/inkscape"
   xmlns:sodipodi="http://sodipodi.sourceforge.net/DTD/sodipodi-0.dtd"
   xmlns:xlink="http://www.w3.org/1999/xlink"
   xmlns="http://www.w3.org/2000/svg"
   xmlns:svg="http://www.w3.org/2000/svg">
  <defs
     id="defs7833">
    <linearGradient
       inkscape:collect="always"
       id="linearGradient3950">
      <stop
         style="stop-color:#82e6f5;stop-opacity:1;"
         offset="0"
         id="stop3946" />
      <stop
         style="stop-color:#71a7d4;stop-opacity:1;"
         offset="1"
         id="stop3948" />
    </linearGradient>
    <linearGradient
       id="linearGradient10200"
       inkscape:swatch="solid">
      <stop
         style="stop-color:#330000;stop-opacity:1;"
         offset="0"
         id="stop10198" />
    </linearGradient>
    <clipPath
       clipPathUnits="userSpaceOnUse"
       id="clipPath14496">
      <g
         inkscape:label="Clip"
         id="use14498" />
    </clipPath>
    <clipPath
       clipPathUnits="userSpaceOnUse"
       id="clipPath3156">
      <circle
         style="fill:#d78f00;stroke-width:0.377953;stop-color:#000000"
         id="circle3158"
         cx="256"
         cy="256"
         r="255"
         inkscape:label="Mask" />
    </clipPath>
    <clipPath
       clipPathUnits="userSpaceOnUse"
       id="clipPath3640">
      <circle
         style="display:inline;fill:#d78f00;stroke-width:0.377953;stop-color:#000000"
         id="circle3642"
         cx="256"
         cy="256"
         r="255"
         inkscape:label="Mask"
         sodipodi:insensitive="true" />
    </clipPath>
    <clipPath
       clipPathUnits="userSpaceOnUse"
       id="clipPath4563">
      <circle
         style="display:inline;fill:#d78f00;stroke-width:0.246245;stop-color:#000000"
         id="circle4565"
         cx="1060.1678"
         cy="-559.06421"
         r="166.13805"
         inkscape:label="Mask"
         sodipodi:insensitive="true"
         transform="scale(1,-1)" />
    </clipPath>
    <clipPath
       clipPathUnits="userSpaceOnUse"
       id="clipPath9033">
      <circle
         style="display:inline;fill:#d78f00;stroke-width:0.310085;stop-color:#000000"
         id="circle9035"
         cx="1086.217"
         cy="-543.19318"
         r="209.21024"
         inkscape:label="Mask"
         sodipodi:insensitive="true"
         transform="scale(1,-1)" />
    </clipPath>
    <clipPath
       clipPathUnits="userSpaceOnUse"
       id="clipPath9569">
      <circle
         style="display:inline;fill:#d78f00;stroke-width:0.377953;stop-color:#000000"
         id="circle9571"
         cx="256"
         cy="256"
         r="255"
         inkscape:label="Mask"
         sodipodi:insensitive="true" />
    </clipPath>
    <clipPath
       clipPathUnits="userSpaceOnUse"
       id="clipPath9698">
      <circle
         style="display:inline;fill:#d78f00;stroke-width:0.377953;stop-color:#000000"
         id="circle9700"
         cx="256"
         cy="256"
         r="255"
         inkscape:label="Mask"
         sodipodi:insensitive="true" />
    </clipPath>
    <clipPath
       clipPathUnits="userSpaceOnUse"
       id="clipPath12935">
      <circle
         style="display:inline;fill:#d78f00;stroke-width:0.277013;stop-color:#000000"
         id="circle12937"
         cx="1075.5178"
         cy="-546.80048"
         r="186.89703"
         inkscape:label="Mask"
         sodipodi:insensitive="true"
         transform="scale(1,-1)" />
    </clipPath>
    <linearGradient
       inkscape:collect="always"
       xlink:href="#linearGradient3950"
       id="linearGradient3952"
       x1="257.69229"
       y1="463.46152"
       x2="281.73077"
       y2="37.499992"
       gradientUnits="userSpaceOnUse" />
    <clipPath
       clipPathUnits="userSpaceOnUse"
       id="clipPath7203">
      <circle
         style="display:inline;fill:#d78f00;stroke-width:0.377953;stop-color:#000000"
         id="circle7205"
         cx="256"
         cy="256"
         r="255"
         inkscape:label="templateMask"
         sodipodi:insensitive="true" />
    </clipPath>
  </defs>
  <sodipodi:namedview
     id="namedview7831"
     pagecolor="#ffffff"
     bordercolor="#000000"
     borderopacity="0.25"
     inkscape:showpageshadow="2"
     inkscape:pageopacity="0.0"
     inkscape:pagecheckerboard="0"
     inkscape:deskcolor="#d1d1d1"
     showgrid="true"
     inkscape:zoom="1.04"
     inkscape:cx="160.09615"
     inkscape:cy="187.01923"
     inkscape:window-width="1920"
     inkscape:window-height="977"
     inkscape:window-x="1280"
     inkscape:window-y="23"
     inkscape:window-maximized="0"
     inkscape:current-layer="layer3"
     inkscape:document-units="in">
    <inkscape:grid
       type="xygrid"
       id="grid2325"
       spacingx="16"
       spacingy="16"
       empspacing="4"
       originx="0"
       originy="0" />
  </sodipodi:namedview>
  <metadata
     id="metadata5952">
Created by FontForge 20201107 at Fri Sep  9 18:26:23 2022
 By Unknown
Copyright 2013, 2022 Google Inc. All Rights Reserved.
</metadata>
  <missing-path
     horiz-adv-x="1000"
     vert-adv-y="2600"
     d="M104 0v1400h792v-1400h-792zM194 78h612v1244h-612v-1244z" />
  <g
     inkscape:groupmode="layer"
     id="layer3"
     inkscape:label="layer 1">
    <circle
       style="display:inline;fill:#d78f00;stroke-width:0.377953;stop-color:#000000"
       id="path726"
       cx="256"
       cy="256"
       r="255"
       inkscape:label="templateMask"
       sodipodi:insensitive="true" />
    <g
       id="g7194"
       clip-path="url(#clipPath7203)"
       inkscape:label="dog">
      <rect
         style="fill:url(#linearGradient3952);stroke-width:0.377953;stop-color:#000000;fill-opacity:1"
         id="rect2882"
         width="580.76923"
         height="548.0769"
         x="-31.73077"
         y="-15.384615" />
      <path
         style="fill:#5bab75;fill-opacity:1;stroke-width:0.377953;stop-color:#000000"
         d="M -74.038462,394.23077 C 211.53846,328.84615 605.76923,388.46154 605.76923,388.46154 L 614.42308,516.34615 -64.423077,537.5 Z"
         id="path4055" />
      <path
         style="fill:#ead693;fill-opacity:1;stroke-width:0.377953;stop-color:#000000"
         d="m 143.26923,434.61538 12.5,-38.46153 v -52.88462 l -16.34615,-54.80769 7.6923,-33.65385 L 112.5,183.65385 148.07692,87.5 l 52.88462,-18.269231 84.61538,17.307693 36.53846,96.153848 -6.73076,44.23077 61.53846,19.23077 16.34615,17.30769 40.38462,-8.65385 -3.84616,24.03846 -25.96154,17.3077 L 387.5,300 l -2.88462,90.38462 -22.11538,25 -35.57692,-4.8077 5.76923,-26.92307 0.96154,-35.57693 -32.69231,12.5 -13.46154,47.11539 5.76923,34.61538 -27.88461,15.38462 L 230.76923,444.23077 233.65385,362.5 218.26923,346.15385 207.69231,362.5 l -0.96154,69.23077 -27.88462,15.38461 z"
         id="path4813" />
      <path
         id="u1F415"
         unicode="ðŸ•"
         vert-adv-y="2600"
         d="m 264.0437,465.48793 q -17.04563,0 -28.76432,-6.78036 -11.71944,-6.7801 -11.71944,-18.98255 0,-7.94535 1.35718,-12.97757 1.35333,-5.03708 1.35333,-10.26619 v -47.26282 q 0,-7.35878 -1.16282,-10.16977 -1.16272,-2.81164 -4.25783,-2.81164 -2.90499,0 -4.25795,2.70742 -1.35332,2.71558 -1.35332,8.91099 v 45.90666 q 0,21.11325 -10.65428,31.37945 -10.65352,10.26611 -32.73521,10.26611 -16.27099,0 -25.76208,-6.87691 -9.49116,-6.87662 -9.49116,-18.8863 0,-6.20177 3.0061,-11.71849 3.0061,-5.51906 6.00122,-9.6847 3.0061,-4.1693 3.0061,-6.68394 v -47.84433 q -6.20234,-13.55841 -10.16967,-31.57296 -3.96864,-18.0139 -3.96864,-32.7356 0,-9.49098 1.64498,-18.11099 1.64497,-8.61933 4.74789,-14.6244 l 13.94629,6.97315 q -2.32169,4.25774 -3.58554,11.0414 -1.26,6.78038 -1.26,14.72084 0,14.7217 4.06536,31.76753 4.06468,17.04498 10.07221,29.05521 v 51.33015 q 0,5.22986 -3.00611,9.97521 -3.00611,4.74807 -6.00133,9.10479 -3.00609,4.36216 -3.00609,9.00638 0,10.26619 19.75699,10.26619 15.49672,0 21.6955,-5.80825 6.19381,-5.80846 6.19381,-20.33878 v -45.90668 q 0,-12.78469 5.61548,-19.95164 5.61513,-7.16592 14.91494,-7.16592 10.07286,0 15.78676,7.84084 5.7124,7.84095 5.7124,20.62959 v 47.26263 q 0,6.00141 -1.35728,10.65352 -1.35718,4.65146 -1.35718,12.59033 0,4.06498 6.97315,7.16592 6.97305,3.10142 18.01465,3.10142 7.74469,0 14.72093,-3.10142 6.97306,-3.10094 6.97306,-8.52281 0,-6.39485 -2.81164,-17.52931 -2.81165,-11.13783 -0.64132,-22.76018 l 8.52328,-44.16414 q 12.00912,-2.32207 23.63137,-6.8768 11.6214,-4.55512 27.31222,-13.46198 v 45.90667 q 0,5.42262 -4.94086,10.84769 -4.94038,5.42284 -4.94038,11.23437 0,3.48677 3.96818,6.00123 3.96864,2.51455 10.36385,2.51455 13.75287,0 22.27531,-8.52291 8.52282,-8.52292 8.52282,-22.08207 0,-2.70742 -0.4047,-10.74996 -0.40094,-8.03933 -0.80469,-16.75501 -0.40094,-8.71719 -0.40094,-12.97832 0,-4.06488 0.48169,-12.39672 0.48263,-8.32939 1.45445,-17.82103 0.97221,-9.49099 2.32169,-16.85127 11.4278,0 22.37212,-3.39023 10.94441,-3.39033 18.014,-8.81287 7.06957,-5.42263 7.06957,-11.23503 0,-4.06516 -2.90891,-4.06516 -3.2938,0 -11.33137,3.67926 -8.03859,3.67924 -15.59231,3.67924 -8.32957,0 -15.01257,-5.42263 -6.68414,-5.42263 -11.13804,-13.17183 -6.00084,-10.65352 -13.36441,-17.43306 -7.35887,-6.78037 -17.43333,-10.55615 -10.07258,-3.77568 -24.60057,-5.32629 l 1.55174,-13.17202 q 19.7569,2.71522 32.15381,8.52281 12.39643,5.80827 19.66047,12.7847 7.26206,6.97343 11.71905,13.55925 4.4586,6.58762 8.32912,10.74987 3.86938,4.16131 9.68404,4.16131 6.58807,0 12.20404,-2.71521 5.61586,-2.71512 10.84751,-5.32639 5.22976,-2.61099 10.45952,-2.61099 5.80836,0 8.91015,3.67925 3.1033,3.67926 3.1033,11.04142 0,17.62667 -13.75298,29.82967 -13.75296,12.20301 -36.6093,15.49605 -1.16272,6.39485 -2.12714,14.04274 -0.97229,7.64816 -0.97229,19.07981 0,10.26638 0.80469,22.46939 0.8047,12.20301 0.8047,18.014 0,13.36545 -6.00131,23.82544 -6.00122,10.45972 -16.46498,16.36761 -10.45944,5.90469 -23.82508,5.90469 -12.59061,0 -20.91971,-5.51905 -8.3295,-5.51906 -8.3295,-15.78602 0,-6.20197 4.65184,-13.65652 4.65107,-7.45522 4.65107,-11.13794 v -21.30676 q -10.0722,5.61558 -22.27539,8.71643 l -6.5877,34.28517 q -1.55165,8.32874 1.16272,19.17634 2.71446,10.84714 2.71446,18.01381 0,10.84714 -11.5246,18.98281 -11.52546,8.13578 -25.66564,8.13578 z m -94.52602,-20.72591 -9.68554,-0.97174 q -0.56432,-2.90854 -0.56432,-6.78038 0,-5.61568 1.35718,-10.84638 l 9.49117,1.93586 q -1.16272,4.84433 -1.16272,9.29813 0,3.87221 0.56432,7.35878 z m 10.07248,0 q -1.93662,-5.037 -1.93662,-10.84705 0,-1.55051 0.0751,-3.10103 0.0751,-1.5524 0.31081,-3.10132 l 9.49071,0.97184 q -0.15587,1.35681 -0.15587,2.51455 v 2.3216 q 0,5.42291 1.93671,10.26619 z m 77.48039,9.10385 -9.68516,-0.97184 1.55164,-20.72591 9.68517,0.97182 z m 11.4278,0 -1.55165,-20.72593 9.68517,-0.97182 1.55164,20.72591 z M 221.42923,321.37496 q -13.75258,0 -23.14723,-10.2662 -9.39437,-10.2662 -10.36263,-25.18151 h 65.47033 q -1.35718,16.07691 -10.16929,25.76244 -8.81371,9.68527 -21.79118,9.68527 z m 119.90076,89.29551 -9.49116,-0.96405 q -0.15587,-1.55042 -0.40095,-3.2938 -0.15587,-1.74422 -0.15587,-3.2939 0,-5.61549 1.93672,-11.23502 l 9.68479,2.32169 q -2.12723,5.80818 -2.12723,10.65334 0,2.32197 0.55962,5.80836 z m 17.62658,1.74422 -9.29783,-0.96414 q -0.15587,-1.55041 -0.40094,-3.39023 -0.15587,-1.83981 -0.15587,-3.19747 0,-4.84403 2.12723,-11.23417 l 9.29783,2.32197 q -2.12722,5.80845 -2.12722,10.65333 0,2.32169 0.56432,5.80845 z M 103.65918,205.92996 q -28.473445,0 -28.473445,-90.07081 0,-10.45972 7.647796,-19.563281 7.648266,-9.10461 20.339159,-14.721692 12.68732,-5.615587 27.79635,-5.615587 12.39653,0 19.07868,3.679248 6.68413,3.679247 9.0078,9.685547 -5.03728,4.458481 -8.32958,14.527025 -3.29381,10.0726 -5.80798,26.14951 -5.42263,35.64122 -16.6587,55.78648 -11.23408,20.14423 -24.60008,20.14423 z m 104.01747,51.71823 q -13.75296,0 -25.76245,-18.5953 l 8.1355,-5.23015 q 9.29746,14.1401 17.62695,14.1401 4.06507,0 6.68375,-3.87211 2.62113,-3.87212 2.62113,-11.23503 h 10.46066 q 0,7.35878 2.60939,11.23503 2.62104,3.87211 6.68414,3.87211 8.32957,0 17.62666,-14.1401 l 8.13587,5.23015 q -12.00958,18.5953 -25.76253,18.5953 -8.32875,0 -14.52762,-7.7446 -6.20186,7.7446 -14.52713,7.7446 z m 84.25983,61.98433 q -4.65146,0 -7.94536,-3.2939 -3.2938,-3.2938 -3.2938,-7.94525 0,-4.65156 3.2938,-7.93738 3.2939,-3.29381 7.94536,-3.29381 4.65183,0 7.93755,3.29381 3.2938,3.2939 3.2938,7.93738 0,4.65126 -3.2938,7.94525 -3.29389,3.2939 -7.93755,3.2939 z M 173.19767,205.15551 q -5.42263,0 -9.29708,-4.55521 -3.86939,-4.55494 -3.86939,-11.13682 0,-6.5876 3.86939,-11.13802 3.86938,-4.55493 9.29708,-4.55493 5.42263,0 9.29747,4.55493 3.8694,4.55511 3.8694,11.13802 0,6.58762 -3.8694,11.13682 -3.86939,4.55521 -9.29747,4.55521 z m 49.00584,31.18581 q -10.07221,0 -16.36705,-3.8721 -6.29879,-3.87183 -6.29879,-10.45981 0,-6.39475 6.29879,-10.26611 6.29803,-3.87183 16.36705,-3.87183 10.26657,0 16.46535,3.87183 6.20197,3.87212 6.20197,10.26611 0,6.5876 -6.20197,10.45981 -6.20188,3.8721 -16.46535,3.8721 z m -1.93672,61.98434 q -23.4369,0 -43.58235,-9.78244 -20.14423,-9.78179 -35.15644,-27.50489 -15.01174,-17.7247 -23.34122,-41.3555 -8.32835,-23.63173 -8.32835,-51.33099 0,-50.36207 27.11773,-78.061327 27.11813,-27.699065 76.70528,-27.699065 34.67184,0 60.43437,13.656433 25.76207,13.655491 40.09598,38.352779 14.33436,24.69672 14.33436,57.62582 0,26.73025 -8.23277,49.68396 -8.23231,22.9538 -22.95316,40.09587 -14.72121,17.14226 -34.38253,26.73053 -19.66047,9.58882 -42.7109,9.58882 z m 0,-15.49605 q 26.3431,0 47.26357,-14.52818 20.91973,-14.52705 33.21946,-39.61137 12.30037,-25.08413 12.30037,-56.46358 0,-28.66808 -12.20319,-49.78122 -12.2032,-21.11306 -34.47898,-32.735402 -22.27579,-11.622353 -52.68658,-11.622353 -43.19503,0 -65.76132,23.147225 -22.56582,23.14734 -22.56582,67.11711 0,32.54179 12.49333,58.49776 12.49371,25.95577 33.99437,40.96732 21.50113,15.01269 48.42479,15.01269 z m 119.70715,3.10102 q -17.04489,0 -29.05447,-11.62159 -12.00948,-11.62207 -12.00948,-28.47428 2.90489,-1.55051 6.87662,-7.55154 3.96893,-6.00123 6.97305,-12.97748 3.00611,-6.97343 3.00611,-10.65371 24.98826,2.12912 38.83803,13.36554 13.84893,11.23427 13.84893,29.24828 0,13.17201 -7.6478,20.92046 -7.64817,7.74432 -20.82329,7.74432 z m -73.79916,-86.58405 q -5.42263,0 -9.29869,-4.55512 -3.86938,-4.55512 -3.86938,-11.13783 0,-6.5877 3.86938,-11.13795 3.86939,-4.55492 9.29869,-4.55492 5.42263,0 9.29708,4.55492 3.8694,4.55504 3.8694,11.13795 0,6.5876 -3.8694,11.13783 -3.86948,4.55512 -9.29708,4.55512 z m 64.88902,-12.00966 q -14.1399,0 -24.88948,-14.52724 -10.75109,-14.52704 -20.62996,-48.03785 -4.65108,-15.68958 -9.39475,-25.181414 -4.74751,-9.490696 -10.55661,-13.171072 2.71437,-10.266206 13.85013,-14.043664 11.13766,-3.775682 22.37175,-3.775682 23.24451,0 34.86714,8.619244 11.62141,8.620004 15.49475,25.084128 3.86938,16.4649 3.86938,40.09588 0,44.9386 -24.98779,44.9386 z"
         style="display:inline;stroke-width:0.193701" />
    </g>
  </g>
</svg>
