<?xml version="1.0" encoding="UTF-8" standalone="no"?>
<svg
   version="1.1"
   id="svg7829"
   sodipodi:docname="horse.svg"
   width="512"
   height="512"
   inkscape:version="1.2.1 (9c6d41e4, 2022-07-14)"
   inkscape:export-filename="../images/brontosaurus.png"
   inkscape:export-xdpi="96"
   inkscape:export-ydpi="96"
   xmlns:inkscape="http://www.inkscape.org/namespaces/inkscape"
   xmlns:sodipodi="http://sodipodi.sourceforge.net/DTD/sodipodi-0.dtd"
   xmlns:xlink="http://www.w3.org/1999/xlink"
   xmlns="http://www.w3.org/2000/svg"
   xmlns:svg="http://www.w3.org/2000/svg">
  <defs
     id="defs7833">
    <linearGradient
       inkscape:collect="always"
       id="linearGradient9565">
      <stop
         style="stop-color:#80e0ff;stop-opacity:1;"
         offset="0"
         id="stop9561" />
      <stop
         style="stop-color:#5485cb;stop-opacity:1;"
         offset="1"
         id="stop9563" />
    </linearGradient>
    <linearGradient
       id="linearGradient10200"
       inkscape:swatch="solid">
      <stop
         style="stop-color:#330000;stop-opacity:1;"
         offset="0"
         id="stop10198" />
    </linearGradient>
    <clipPath
       clipPathUnits="userSpaceOnUse"
       id="clipPath14496">
      <g
         inkscape:label="Clip"
         id="use14498" />
    </clipPath>
    <clipPath
       clipPathUnits="userSpaceOnUse"
       id="clipPath3156">
      <circle
         style="fill:#d78f00;stroke-width:0.377953;stop-color:#000000"
         id="circle3158"
         cx="256"
         cy="256"
         r="255"
         inkscape:label="Mask" />
    </clipPath>
    <clipPath
       clipPathUnits="userSpaceOnUse"
       id="clipPath3640">
      <circle
         style="display:inline;fill:#d78f00;stroke-width:0.377953;stop-color:#000000"
         id="circle3642"
         cx="256"
         cy="256"
         r="255"
         inkscape:label="Mask"
         sodipodi:insensitive="true" />
    </clipPath>
    <clipPath
       clipPathUnits="userSpaceOnUse"
       id="clipPath4563">
      <circle
         style="display:inline;fill:#d78f00;stroke-width:0.246245;stop-color:#000000"
         id="circle4565"
         cx="1060.1678"
         cy="-559.06421"
         r="166.13805"
         inkscape:label="Mask"
         sodipodi:insensitive="true"
         transform="scale(1,-1)" />
    </clipPath>
    <clipPath
       clipPathUnits="userSpaceOnUse"
       id="clipPath9033">
      <circle
         style="display:inline;fill:#d78f00;stroke-width:0.310085;stop-color:#000000"
         id="circle9035"
         cx="1086.217"
         cy="-543.19318"
         r="209.21024"
         inkscape:label="Mask"
         sodipodi:insensitive="true"
         transform="scale(1,-1)" />
    </clipPath>
    <linearGradient
       inkscape:collect="always"
       xlink:href="#linearGradient9565"
       id="linearGradient9492"
       gradientUnits="userSpaceOnUse"
       x1="1078.139"
       y1="-419.92322"
       x2="1076.5613"
       y2="-777.28461"
       gradientTransform="matrix(1.2188696,0,0,1.2188696,-1067.957,918.08166)" />
    <clipPath
       clipPathUnits="userSpaceOnUse"
       id="clipPath12935">
      <circle
         style="display:inline;fill:#d78f00;stroke-width:0.277013;stop-color:#000000"
         id="circle12937"
         cx="1075.5178"
         cy="-546.80048"
         r="186.89703"
         inkscape:label="Mask"
         sodipodi:insensitive="true"
         transform="scale(1,-1)" />
    </clipPath>
    <clipPath
       clipPathUnits="userSpaceOnUse"
       id="clipPath18589">
      <circle
         style="display:inline;fill:#d78f00;stroke-width:0.377953;stop-color:#000000"
         id="circle18591"
         cx="256"
         cy="256"
         r="255"
         inkscape:label="Mask"
         sodipodi:insensitive="true" />
    </clipPath>
    <clipPath
       clipPathUnits="userSpaceOnUse"
       id="clipPath18768">
      <circle
         style="display:inline;fill:#d78f00;stroke-width:0.377953;stop-color:#000000"
         id="circle18770"
         cx="256"
         cy="256"
         r="255"
         inkscape:label="Mask"
         sodipodi:insensitive="true" />
    </clipPath>
  </defs>
  <sodipodi:namedview
     id="namedview7831"
     pagecolor="#ffffff"
     bordercolor="#000000"
     borderopacity="0.25"
     inkscape:showpageshadow="2"
     inkscape:pageopacity="0.0"
     inkscape:pagecheckerboard="0"
     inkscape:deskcolor="#d1d1d1"
     showgrid="true"
     inkscape:zoom="1.04"
     inkscape:cx="160.09615"
     inkscape:cy="187.01923"
     inkscape:window-width="1920"
     inkscape:window-height="977"
     inkscape:window-x="1280"
     inkscape:window-y="23"
     inkscape:window-maximized="0"
     inkscape:current-layer="layer3"
     inkscape:document-units="in">
    <inkscape:grid
       type="xygrid"
       id="grid2325"
       spacingx="16"
       spacingy="16"
       empspacing="4"
       originx="0"
       originy="0" />
  </sodipodi:namedview>
  <metadata
     id="metadata5952">
Created by FontForge 20201107 at Fri Sep  9 18:26:23 2022
 By Unknown
Copyright 2013, 2022 Google Inc. All Rights Reserved.
</metadata>
  <missing-path
     horiz-adv-x="1000"
     vert-adv-y="2600"
     d="M104 0v1400h792v-1400h-792zM194 78h612v1244h-612v-1244z" />
  <g
     inkscape:groupmode="layer"
     id="layer3"
     inkscape:label="Layer 1">
    <g
       id="g9501"
       inkscape:label="Horse"
       clip-path="url(#clipPath18768)"
       sodipodi:insensitive="true"
       style="display:inline">
      <rect
         style="display:inline;fill:url(#linearGradient9492);fill-opacity:1;stroke-width:0.377953;stop-color:#000000"
         id="rect8998-3"
         width="641.34613"
         height="470.19235"
         x="-74.038475"
         y="-47.115391"
         inkscape:label="rect8998-3" />
      <path
         style="display:inline;fill:#4aa243;fill-opacity:1;stroke-width:0.377953;stop-color:#000000"
         d="M -39.833086,405.52821 C 245.72929,342.29655 551.68897,410.2876 551.68897,410.2876 l 6.11921,112.86511 -616.678753,-5.43927 z"
         id="path5002-4" />
      <path
         style="fill:#eddd89;fill-opacity:1;stroke-width:0.377953;stop-color:#000000"
         d="m 227.76997,408.62613 -26.5165,2.03973 -31.27588,-18.35758 -13.59821,-38.07498 7.47902,-21.07722 29.23614,-29.23615 -23.79686,-28.55623 3.39955,-28.55624 8.83884,-20.39731 -2.71964,-18.35758 -23.79687,2.03973 -28.55623,34.67543 -22.43704,1.35982 -18.357584,-19.7174 1.359821,-34.67543 15.637943,-19.03749 -2.03974,-18.35758 58.4723,-75.470047 19.03749,32.635697 c 42.15444,29.00951 71.11724,70.09745 117.62449,83.62898 l 50.99328,-12.23839 51.67319,18.35758 c 0,0 27.19641,31.95579 27.19641,34.67543 0,2.71964 2.71964,53.03301 2.71964,53.03301 l -21.75713,27.19641 -35.35534,31.27588 -4.75937,23.79686 -59.1522,58.47229 -31.95579,-21.75713 19.7174,-25.15668 25.83659,-14.95803 11.55848,-37.39507 -29.91606,-23.79686 -48.95354,13.5982 -59.15221,40.79462 6.79911,14.27812 17.67767,-2.03973 z"
         id="path9559"
         sodipodi:nodetypes="ccccccccccccccccccccccsccccccccccccccc" />
      <path
         id="u1F40E"
         unicode="ðŸŽ"
         vert-adv-y="2600"
         d="m 285.93926,441.70447 q -7.04115,0 -14.79751,-1.09833 -7.75629,-1.0984 -13.03711,-3.30034 -5.50119,-2.20062 -5.50119,-4.40069 0,-4.40077 3.85076,-10.83695 3.85075,-6.60092 9.90181,-13.14706 6.10583,-6.5463 12.81703,-10.23176 0,-7.2062 7.59123,-14.90769 7.59171,-7.70112 18.31823,-9.62673 l 8.63649,-8.4712 q 0,-8.80138 4.40061,-16.22772 4.40093,-7.42618 14.90739,-14.79759 2.20124,-7.2612 2.20124,-14.13744 0.43811,-6.87601 0.43811,-13.42231 0,-3.30042 0.16109,-7.15102 0.16108,-3.85083 0.36418,-8.52645 -19.91327,18.70312 -40.15687,27.22965 -20.18843,8.58139 -44.88744,9.62673 -16.06243,13.91721 -29.37516,23.65359 -13.31196,9.6819 -22.66336,15.01757 l 3.85013,6.54645 q 2.20132,-1.0984 7.75668,-1.64982 5.50088,-0.55173 7.2065,-0.55173 6.54575,0 12.81695,4.9507 6.2709,4.95072 10.34172,12.87198 3.85052,7.92149 3.85052,17.27313 0,9.73636 -9.4616,12.15691 -9.46159,2.20062 -22.66405,2.20062 -19.7479,0 -34.38067,-8.19644 -14.63245,-8.19627 -18.37271,-29.53983 -1.09902,-5.50112 -4.40092,-11.44199 -3.85074,-6.16101 -3.85074,-15.67747 0,-7.42618 4.40061,-14.57759 4.40092,-7.15125 12.26748,-15.62261 l 16.94263,-17.4378 q -10.78201,-7.20602 -16.94263,-17.9331 -6.16134,-10.67166 -6.16134,-24.6443 0,-21.17843 13.58729,-37.40615 L 173.6934,214.1324 q -3.85075,2.20061 -8.5814,3.30057 -4.40061,1.09833 -8.91173,1.64982 l -9.18635,10.39666 q 0,11.27717 -9.90149,19.69344 -9.9019,8.36139 -23.4891,8.36139 -16.39285,0 -27.064669,-11.55186 -10.671432,-11.55187 -10.671432,-29.04484 0,-9.68173 4.950706,-21.45375 4.950791,-11.71684 12.871821,-20.35317 v -17.6581 q 17.107994,-3.30027 30.200514,-12.81719 13.03679,-9.2416 17.27266,-26.01942 -1.09903,-3.30034 -1.09903,-5.99588 -0.43811,-2.75142 -0.43811,-5.50082 0,-6.3263 3.30027,-14.02733 3.30057,-7.701423 8.14149,-13.257401 4.40092,-5.555747 8.36155,-5.555747 3.85075,0 8.47152,5.940866 4.9507,5.886093 8.19627,14.137455 3.30025,8.196417 3.30025,15.072427 v 0.15175 q 23.4891,9.73683 42.90759,25.57959 19.41819,15.89746 35.64608,38.45125 14.46708,4.40054 26.459,16.55791 3.30059,0.36652 6.71142,0.55173 3.30027,0.30582 6.16095,0.30582 11.27709,0 20.1882,-2.75172 8.91172,-2.75142 17.71327,-5.83092 8.80146,-2.75172 19.7482,-2.75172 21.50823,0 39.60671,10.50692 18.09738,10.5067 28.93425,28.60477 10.8368,18.09801 10.8368,41.20205 0,18.86786 -7.48081,37.73626 -7.48136,18.86802 -26.89994,34.60066 -5.99558,4.95078 -12.87173,10.56179 -6.87617,5.83106 -11.44207,10.78185 0,8.63625 -1.65014,15.07243 -1.65013,6.43611 -6.43587,12.43215 -4.40092,5.99612 -12.76225,13.14713 -8.19619,7.15141 -20.7386,17.54822 -4.40092,3.30027 -6.71111,8.14126 -2.20124,4.40076 -9.18635,6.87608 0,8.14134 -6.87647,11.38705 -6.8761,3.30043 -25.02904,3.30043 z M 123.43098,389.50081 q -3.30089,0 -8.74636,-4.40077 -4.9511,-4.40077 -8.74676,-8.63656 -7.921026,-5.66603 -13.312038,-14.19216 -5.501191,-8.58147 -5.501191,-15.45779 0,-7.04122 3.850754,-15.23765 3.850754,-8.19627 11.717295,-20.02322 2.75243,-4.40077 3.30027,-9.68158 0.29027,-5.50096 1.09903,-10.8368 0.55095,-5.50112 4.95079,-9.46152 6.54606,-6.16109 16.33768,-6.98627 9.79162,-0.55174 22.66374,-1.64982 1.65014,-0.15175 5.72105,-2.20062 3.85074,-2.20062 12.43213,-9.90143 l 0.55096,21.67336 19.41819,25.57936 h -41.64196 q -11.11172,0 -17.65786,6.16117 -6.54606,6.16102 -6.54606,16.77782 v 16.22788 q 6.16094,0 8.80115,3.30027 2.75243,3.30065 2.75243,12.43199 0,12.15705 -3.30058,19.47344 -3.30065,7.31606 -8.30655,7.31606 z M 108.79853,228.22464 q -2.75234,0 -5.55598,-3.30059 -2.75242,-3.3005 -2.75242,-7.04136 0,-4.95056 3.85043,-4.95056 2.75243,0 5.66594,3.30058 2.75243,3.30042 2.75243,7.04098 0,4.95095 -3.85083,4.95095 z m 142.39681,158.27807 q -2.75236,0 -3.85044,-2.20062 -1.10222,-2.20061 -1.10222,-5.99605 0,-9.90172 2.20123,-13.69737 2.20126,-3.85084 6.27122,-6.98629 -0.55096,-2.20061 -0.55096,-5.50088 0,-15.67755 22.38874,-19.74829 l 6.71112,-1.0984 q 11.27708,-2.20062 15.45755,-8.03122 4.40092,-5.88624 4.40092,-15.07274 l 36.19585,-23.10382 v 35.09566 q 0,8.47167 -4.95047,13.31258 -4.95141,4.95064 -11.88228,7.86609 -6.98604,2.75149 -13.42222,5.66594 -6.43626,2.75141 -9.62666,6.8764 -2.20123,3.30025 -7.42625,5.50064 -4.95079,2.20062 -8.63649,2.20062 -3.85044,0 -3.85044,6.8764 0,9.18635 -9.07679,13.58711 -9.07677,4.40078 -18.97797,4.40078 z M 140.20865,176.17497 q -2.75235,0 -4.95071,-2.20062 -2.20132,-2.2006 -2.20132,-4.95102 0,-2.75172 2.20132,-4.95086 2.20124,-2.20062 4.95071,-2.20062 2.75242,0 4.95079,2.20062 2.20123,2.20062 2.20123,4.95086 0,2.75142 -2.20123,4.95102 -2.20133,2.20062 -4.95079,2.20062 z M 306.6005,427.61098 q 2.20133,-3.30027 2.20133,-8.14125 6.16125,-1.64982 7.86655,-5.50112 1.65014,-3.85028 5.55567,-7.26089 17.10831,-13.58751 26.12961,-21.45368 9.02169,-7.86648 12.5421,-12.81718 2.75236,-4.40078 4.40093,-9.68175 1.65013,-5.50073 1.65013,-14.13729 6.16094,-7.42618 14.63245,-15.62261 8.47152,-8.19628 14.63215,-13.31226 14.30242,-11.99209 19.3083,-27.06453 4.95072,-15.07251 4.95072,-32.5654 0,-18.70319 -8.6365,-33.61089 -8.63617,-14.9073 -23.3785,-23.70876 -14.74241,-8.80139 -33.28071,-8.80139 -8.80122,0 -17.65786,2.75142 -8.80154,2.75172 -18.53799,5.66609 -9.68174,2.75172 -21.50893,2.75172 -10.06655,0 -21.5083,-2.20061 -10.56218,-11.99193 -26.62431,-16.77782 -17.10799,-24.36882 -37.2414,-41.53176 -20.13366,-17.21796 -42.52247,-24.42415 0.36419,-1.64983 0.435,-3.30074 0.0965,-1.64982 0.0965,-3.30041 0,-8.30655 -3.30096,-14.302438 -3.30027,-5.996036 -8.1962,-10.946742 -4.40061,6.545981 -6.87585,11.71675 -2.20124,4.95104 -2.20124,12.98217 0,5.66594 1.65013,10.39665 -3.85012,15.67779 -15.18231,26.73481 -11.11173,11.00177 -27.8897,17.2178 v 11.27671 q -7.92134,7.59123 -12.87205,18.4281 -4.950791,10.83687 -4.950791,20.35363 0,10.94676 6.875853,18.26284 6.876468,7.31637 16.942948,7.31637 8.80154,0 14.74273,-5.99588 5.94078,-5.99604 5.94078,-15.01758 l 15.34764,-17.43803 q 16.06243,-0.36652 24.97417,-7.15094 8.91142,-6.76652 8.91142,-19.69359 0,-9.51637 -4.95072,-24.36896 l 11.66191,-4.40078 q 2.75234,8.14134 4.40085,15.23772 1.65021,7.15102 1.65021,13.31196 0,6.87639 -2.75243,12.59712 -2.75235,5.72111 -7.59131,10.67182 l 5.99597,32.29031 q -6.87617,4.95111 -10.94668,13.75264 -3.85083,8.80139 -3.85083,17.65802 0,11.66167 8.5814,23.65375 8.58139,11.99178 18.8133,17.65786 l -27.8897,29.10001 q -5.99627,6.54622 -9.0213,11.22192 -2.75243,4.95086 -2.75243,9.7917 0,6.71103 3.30057,11.55186 3.30066,4.95087 4.40094,9.62673 2.20131,16.61284 13.14705,23.81903 10.67206,7.20627 34.3262,7.20627 0.55095,-3.85098 0.55095,-7.92165 0,-13.2571 -8.80154,-21.50853 -2.75235,0.55172 -5.99627,1.64982 -3.30058,1.0984 -4.40055,1.0984 -3.30064,0 -6.43625,-4.95071 -2.75235,-4.95072 -7.15102,-15.1824 9.35133,-4.40069 18.09777,-10.34195 8.74707,-5.72087 19.03337,-14.19246 10.34172,-8.47121 24.64415,-21.01346 20.1331,-1.09833 39.44172,-9.02146 19.30831,-8.08631 35.37075,-21.89366 16.06282,-13.75217 25.90954,-31.57517 l 10.39681,5.50073 q -4.40085,7.92151 -7.59123,19.03338 -3.30097,11.11158 -3.30097,24.14884 0,10.06686 -0.55096,20.57331 -0.55095,10.507 -4.40061,17.7132 -8.80154,6.54613 -13.9173,15.34751 -4.95102,8.80155 -4.95102,18.7032 l -11.82696,10.39681 q -9.18635,0.51049 -15.23772,5.83107 -6.10583,5.50065 -6.10583,12.87197 -4.40062,1.10167 -8.80123,4.40077 14.46747,3.30058 24.53402,19.41819 z M 272.3849,191.87439 257.75275,180.43241 233.93364,150.78262 190.69626,119.20721 171.82825,109.14074 q 6.87616,0 12.26686,-3.30058 5.50088,-3.30057 10.12196,-8.086468 4.95039,-4.400604 9.79122,-8.086465 4.95079,-3.300268 11.00217,-3.300268 6.54575,0 10.56155,4.400766 3.85075,4.400779 3.85075,10.121575 0,5.99588 -2.75235,10.83687 -2.75243,4.95071 -2.75243,9.95644 0,1.64982 1.65014,2.75172 1.65021,1.0984 3.30096,1.0984 2.75242,0 8.63649,-3.85066 5.66563,-3.85083 11.66159,-3.85083 5.99596,0 10.50708,4.40077 4.40062,4.40076 4.40062,10.39673 0,4.95102 -2.75243,9.46182 -2.75235,4.95063 -5.50089,8.58139 -2.75243,3.85068 -2.75243,6.54598 0,4.40078 5.83131,4.40078 2.75234,0 6.7108,-1.0984 3.85074,-1.10128 7.75628,-1.10128 5.66594,0 8.74676,3.85067 3.30027,3.85068 3.30027,8.58139 0,4.95095 -3.30027,10.0667 -3.30058,4.95064 -9.62657,10.06679 z M 453.9481,322.978 q -10.56156,0 -20.57332,-4.40078 -9.9566,-4.40077 -16.11792,-12.87212 l 12.87212,-38.28636 v -31.41027 q 5.99628,0 9.02162,4.95086 2.75242,4.95071 4.40092,12.81704 1.65013,7.59131 3.30027,15.18255 2.20131,7.59131 5.72103,12.81726 3.85082,4.95071 11.22199,4.95071 11.82687,0 17.98812,-3.30042 6.16071,-3.30058 10.78171,-3.30058 4.40061,0 4.40061,6.87617 0,7.42633 -5.55566,15.62261 -5.55607,8.19643 -15.23773,13.86221 -9.73653,5.66585 -22.60897,5.66585 z M 137.57941,102.06629 q 4.40054,0 9.0213,1.10129 v 22.22376 l -18.70273,23.81857 -30.530533,20.2987 q -8.80123,0 -14.467484,-2.20062 -5.665551,-2.20061 -5.665551,-6.16101 0,-3.30073 2.752354,-4.40061 2.752427,-1.10129 6.105845,-1.10129 3.300959,-0.30582 4.951094,-1.0984 1.650134,-1.10129 2.752426,-3.85098 1.098946,-2.75142 2.201238,-9.24145 3.850754,-20.46337 13.752251,-29.98005 -1.65012,-7.04115 -1.65012,-12.706928 0,-5.99604 1.09902,-10.231828 1.09903,-4.400536 3.85075,-4.400536 3.85076,0 8.4712,4.950633 4.95102,4.950779 8.6365,12.872199 1.65013,-0.15174 3.85074,-0.30583 1.65013,-0.0622 3.85075,-0.0622 z"
         style="display:inline;stroke-width:0.176449" />
    </g>
  </g>
</svg>
