<?xml version="1.0" encoding="UTF-8" standalone="no"?>
<svg
   version="1.1"
   id="svg7829"
   sodipodi:docname="t-rex.svg"
   width="512"
   height="512"
   inkscape:version="1.2.1 (9c6d41e4, 2022-07-14)"
   inkscape:export-filename="../images/t-rex.png"
   inkscape:export-xdpi="96"
   inkscape:export-ydpi="96"
   xmlns:inkscape="http://www.inkscape.org/namespaces/inkscape"
   xmlns:sodipodi="http://sodipodi.sourceforge.net/DTD/sodipodi-0.dtd"
   xmlns:xlink="http://www.w3.org/1999/xlink"
   xmlns="http://www.w3.org/2000/svg"
   xmlns:svg="http://www.w3.org/2000/svg">
  <defs
     id="defs7833">
    <linearGradient
       inkscape:collect="always"
       id="linearGradient9027">
      <stop
         style="stop-color:#73a2c1;stop-opacity:1;"
         offset="0"
         id="stop9023" />
      <stop
         style="stop-color:#26435c;stop-opacity:1;"
         offset="1"
         id="stop9025" />
    </linearGradient>
    <linearGradient
       id="linearGradient10200"
       inkscape:swatch="solid">
      <stop
         style="stop-color:#330000;stop-opacity:1;"
         offset="0"
         id="stop10198" />
    </linearGradient>
    <clipPath
       clipPathUnits="userSpaceOnUse"
       id="clipPath14496">
      <g
         inkscape:label="Clip"
         id="use14498" />
    </clipPath>
    <clipPath
       clipPathUnits="userSpaceOnUse"
       id="clipPath3156">
      <circle
         style="fill:#d78f00;stroke-width:0.377953;stop-color:#000000"
         id="circle3158"
         cx="256"
         cy="256"
         r="255"
         inkscape:label="Mask" />
    </clipPath>
    <clipPath
       clipPathUnits="userSpaceOnUse"
       id="clipPath3640">
      <circle
         style="display:inline;fill:#d78f00;stroke-width:0.377953;stop-color:#000000"
         id="circle3642"
         cx="256"
         cy="256"
         r="255"
         inkscape:label="Mask"
         sodipodi:insensitive="true" />
    </clipPath>
    <clipPath
       clipPathUnits="userSpaceOnUse"
       id="clipPath4563">
      <circle
         style="display:inline;fill:#d78f00;stroke-width:0.246245;stop-color:#000000"
         id="circle4565"
         cx="1060.1678"
         cy="-559.06421"
         r="166.13805"
         inkscape:label="Mask"
         sodipodi:insensitive="true"
         transform="scale(1,-1)" />
    </clipPath>
    <linearGradient
       inkscape:collect="always"
       xlink:href="#linearGradient9027"
       id="linearGradient9029"
       x1="1078.139"
       y1="-419.92322"
       x2="1076.5613"
       y2="-777.28461"
       gradientUnits="userSpaceOnUse" />
    <clipPath
       clipPathUnits="userSpaceOnUse"
       id="clipPath9033">
      <circle
         style="display:inline;fill:#d78f00;stroke-width:0.310085;stop-color:#000000"
         id="circle9035"
         cx="1086.217"
         cy="-543.19318"
         r="209.21024"
         inkscape:label="Mask"
         sodipodi:insensitive="true"
         transform="scale(1,-1)" />
    </clipPath>
  </defs>
  <sodipodi:namedview
     id="namedview7831"
     pagecolor="#ffffff"
     bordercolor="#000000"
     borderopacity="0.25"
     inkscape:showpageshadow="2"
     inkscape:pageopacity="0.0"
     inkscape:pagecheckerboard="0"
     inkscape:deskcolor="#d1d1d1"
     showgrid="true"
     inkscape:zoom="1.04"
     inkscape:cx="59.134615"
     inkscape:cy="285.09615"
     inkscape:window-width="1920"
     inkscape:window-height="977"
     inkscape:window-x="1280"
     inkscape:window-y="23"
     inkscape:window-maximized="0"
     inkscape:current-layer="layer3"
     inkscape:document-units="in">
    <inkscape:grid
       type="xygrid"
       id="grid2325"
       spacingx="16"
       spacingy="16"
       empspacing="4"
       originx="0"
       originy="0" />
  </sodipodi:namedview>
  <metadata
     id="metadata5952">
Created by FontForge 20201107 at Fri Sep  9 18:26:23 2022
 By Unknown
Copyright 2013, 2022 Google Inc. All Rights Reserved.
</metadata>
  <missing-path
     horiz-adv-x="1000"
     vert-adv-y="2600"
     d="M104 0v1400h792v-1400h-792zM194 78h612v1244h-612v-1244z" />
  <g
     inkscape:groupmode="layer"
     id="layer3"
     inkscape:label="Layer 1">
    <g
       id="g9810"
       transform="matrix(1.2188696,0,0,-1.2188696,-1067.957,918.08166)"
       style="display:inline"
       inkscape:label="T-Rex"
       clip-path="url(#clipPath9033)">
      <rect
         style="fill:url(#linearGradient9029);fill-opacity:1;stroke-width:0.310085;stop-color:#000000"
         id="rect8998"
         width="526.18109"
         height="385.76099"
         x="815.44287"
         y="-791.87885"
         transform="scale(1,-1)" />
      <path
         style="fill:#574b35;fill-opacity:1;stroke-width:0.310085;stop-color:#000000"
         d="m 842.7172,411.83776 c 234.2846,51.8773 485.3038,-3.90475 485.3038,-3.90475 l 5.0204,-92.59819 -505.94317,4.46256 z"
         id="path5002" />
      <path
         style="fill:#ffffff;fill-opacity:1;stroke-width:0.377953;stop-color:#000000"
         d="m 67.307692,143.26923 c 0,0 24.038462,-6.73077 26.442308,-6.25 2.403846,0.48077 68.26923,26.44231 68.26923,26.44231 l -4.80769,17.30769 c 0,0 -27.88462,23.55769 -29.80769,25 -1.92308,1.44231 -45.192311,9.61539 -45.192311,9.61539 l -3.846154,-23.5577 11.538461,-22.11538 -17.307692,-9.61539 z"
         id="path4621"
         transform="matrix(0.82043231,0,0,-0.82043231,876.18643,753.22386)" />
      <path
         style="display:inline;fill:#c6a640;fill-opacity:0.91489393;stroke-width:10.9183;stop-color:#000000"
         d="m 930.82149,641.3243 c 3.83287,40.67323 30.10131,22.3519 62.63555,18.09479 13.59096,12.78587 29.70576,11.11258 36.65326,-6.95954 22.5214,-12.64527 31.6085,-34.6945 42.221,-55.67602 53.3732,24.33484 78.3288,-9.44822 127.5908,-18.09468 37.9116,4.66088 33.2998,25.15247 1.8559,28.30198 -28.5538,2.2165 -24.0876,21.59691 10.6712,22.73431 72.9699,-0.90691 77.6872,-82.87735 -14.8469,-104.39249 -11.5442,-12.17313 -22.3261,-25.87077 -36.1894,-33.40552 12.0308,-38.02079 -23.9233,-47.59332 22.7343,-101.14473 h -31.5497 c -11.1263,-10.9094 -21.7673,-17.93688 -29.2298,0.46403 -25.7873,-1.5737 -23.832,8.2342 -1.392,26.44608 10.8452,21.22122 -4.7993,31.25314 -1.8558,54.28415 l -58.9237,4.17572 -38.0453,80.73012 -58.45986,-6.49552 c -16.48309,4.14311 -18.98746,16.05216 -25.05412,25.98217 37.99938,1.40337 59.71836,16.86709 70.52288,41.75693 -26.35365,3.21326 -40.01833,26.21635 -79.33831,23.19822 z"
         id="path9158"
         sodipodi:nodetypes="cccccccccccccccccccc" />
      <path
         id="u1F996"
         unicode="🦖"
         vert-adv-y="2600"
         d="m 1135.2119,374.01568 q -4.8852,0 -7.0405,2.9456 -2.1552,2.9455 -3.4483,5.8191 -1.2932,2.8737 -3.7358,2.8737 h -7.4716 q -7.6151,0 -11.7101,2.8737 -4.095,2.8736 -4.095,6.8967 0,4.4542 3.6639,7.9745 3.664,3.5202 8.4055,7.1123 4.7416,3.5921 8.4055,8.1181 3.6639,4.526 3.6639,10.8481 0,6.322 -1.8679,12.1412 -1.8679,5.8192 -3.8076,11.8539 -1.9397,6.0347 -1.9397,12.5004 -1.8679,-1.0058 -4.5979,-1.365 -2.73,-0.3592 -5.0289,-0.3592 -7.1842,0 -13.5781,2.4426 -6.3939,2.4427 -11.2791,6.6095 -1.8679,-0.5748 -5.0289,-0.5748 -6.1784,0 -9.4831,2.73 -3.3047,2.73 -4.8852,7.6152 -2.4427,-0.7184 -4.3106,-0.7184 -5.6036,0 -10.417,5.9629 -4.8134,5.9628 -2.5144,16.1643 -7.7589,20.2594 -13.6499,30.5327 -5.8911,10.2734 -11.351,16.0207 -3.1611,-0.5747 -5.9629,-1.0058 -2.8018,-0.431 -5.5318,-0.431 -3.161,0 -7.25601,0.5029 -4.095,0.5028 -6.9686,0.5028 -3.5921,0 -10.7763,-3.0173 -7.1841,-3.0174 -14.7994,-3.0174 -9.9141,0 -17.1701,7.2561 -7.256,7.256 -11.1355,17.8885 -3.8794,10.6326 -3.8794,20.6904 0,6.8968 1.9397,12.8597 1.9397,5.9628 5.8192,9.4112 -8.9083,4.3105 -13.3625,11.7102 -4.4542,7.3997 -4.4542,15.7333 0,8.4773 3.7357,15.9489 3.7358,7.4715 10.4171,12.1412 6.6813,4.6697 15.5896,4.6697 7.3279,0 14.2965,-2.2989 6.9686,-2.2989 12.9315,-4.5979 5.9628,-2.2989 10.1297,-2.2989 2.4426,4.4542 7.256,6.8249 4.81341,2.3708 10.99171,2.3708 8.3337,0 14.512,-4.4542 6.1784,-4.4542 8.19,-11.6383 9.7704,-4.1668 21.0496,-18.8944 11.2791,-14.7275 21.3369,-35.8489 7.0405,3.4484 15.3023,5.9628 8.2618,2.5145 16.7391,2.5145 12.9315,0 25.0009,-3.8795 12.0694,-3.8794 23.4204,-8.9083 11.3509,-5.0289 21.8398,-8.9084 10.4889,-3.8794 20.1157,-3.8794 9.052,0 16.0925,2.5862 7.0405,2.5863 7.0405,6.1784 0,2.0116 -4.4542,3.5921 -4.4542,1.5805 -16.0925,3.4484 -12.9315,2.1553 -18.5352,5.8192 -5.6036,3.6639 -5.6036,9.4112 0,17.3857 41.3808,17.3857 24.7135,0 39.1536,-13.2907 14.4402,-13.2907 14.4402,-35.9926 0,-21.2652 -16.8109,-35.9927 -16.811,-14.7275 -56.3239,-27.5153 -5.3162,-8.3337 -13.9372,-17.242 -8.621,-8.9084 -17.5294,-15.2305 2.0116,-8.0462 2.0116,-15.3741 0,-9.4831 -2.299,-18.5351 -2.2989,-9.052 -2.2989,-15.2304 0,-9.0521 3.4484,-15.877 3.4484,-6.825 8.0463,-12.2849 4.5978,-5.46 8.0462,-10.2016 3.4484,-4.7415 3.4484,-9.483 0,-4.8853 -3.8794,-7.8308 -3.8795,-2.9455 -9.1957,-2.9455 -3.8795,0 -8.9802,1.1495 -5.1008,1.1494 -10.2734,3.8794 l -9.3394,-7.0405 q -5.46,-4.3105 -9.7705,-4.3105 z m -69.6864,12.5005 q -4.0231,0 -4.0231,2.1552 0,2.8737 3.3047,6.6095 -12.213,-7.7589 -20.1156,-7.7589 -5.7473,0 -5.7473,3.8794 0,2.4426 2.2989,6.3221 -7.0405,-4.4542 -11.4947,-4.4542 -4.1668,0 -4.1668,3.0173 0,3.8795 4.7416,8.1182 4.7415,4.2386 11.8538,7.256 7.1124,3.0173 14.1528,3.0173 9.4831,0 16.2362,4.3105 6.7531,4.3105 6.7531,12.3568 0,6.1783 -4.4542,9.8423 -4.4541,3.6639 -10.9917,6.9686 -6.5376,3.3047 -13.147,7.9744 -6.6095,4.6697 -11.0636,12.5723 -4.4542,7.9026 -4.4542,20.9778 0,6.4657 1.365,11.2073 1.365,4.7415 4.2386,10.4888 l 9.9142,-21.1214 38.9381,-15.2304 q 0,-5.7474 4.0232,-10.9918 4.0231,-5.2444 8.0462,-10.0578 4.0232,-4.8134 4.0232,-9.4113 0,-4.1668 -2.8737,-11.5665 -2.8737,-7.3997 -2.8737,-13.2907 0,-5.1726 2.0116,-7.9744 2.0115,-2.8018 4.0231,-4.5979 2.0116,-1.796 2.0116,-4.0949 0,-1.5806 -3.0892,-2.73 -3.0892,-1.1495 -7.1123,-1.1495 -7.0405,0 -12.0694,-3.161 -5.0289,-3.161 -9.6986,-6.3221 -4.6697,-3.161 -10.5608,-3.161 z m -80.74991,96.2678 q -3.4484,0 -6.6094,6.3939 -3.1611,6.3939 -3.1611,15.7333 0,10.2015 4.5979,16.0925 4.5978,5.891 13.0751,5.891 6.8969,0 10.48891,4.7416 3.5921,4.7415 5.5318,10.9199 1.9398,6.1784 4.0232,10.9199 2.0834,4.7416 5.9628,4.7416 l 21.5525,-25.432 q 0,-2.1552 -0.9339,-6.7531 -0.934,-4.5978 -3.0892,-9.4831 -2.1553,-4.8852 -5.46,-8.4054 -3.3047,-3.5203 -8.0463,-3.5203 -5.0289,0 -8.8365,0.3592 -3.8076,0.3592 -7.9744,0.3592 -1.8679,0 -2.1552,-3.5202 -0.2874,-3.5202 -0.2874,-7.8307 0,-3.5921 -0.5029,-6.6813 -0.5029,-3.0892 -2.9455,-3.0892 -3.16111,0 -5.81921,3.7358 -2.6581,3.7357 -4.526,8.9083 0,-5.4599 -1.0776,-9.7704 -1.0777,-4.3105 -3.8076,-4.3105 z m -37.5014,100.0035 q 5.3163,0.2874 10.0579,1.0776 4.7415,0.7903 9.1957,1.9398 0,7.1841 -1.7961,10.5607 -1.796,3.3765 -4.6696,3.3765 -2.5864,0 -3.9513,-2.3707 -1.365,-2.3708 -1.365,-5.5318 -2.4426,6.4657 -6.4658,6.4657 -1.7242,0 -2.5863,-1.9397 -0.8621,-1.9397 -0.8621,-4.3824 0,-4.5978 2.4426,-9.1957 z m -1.1494,38.2198 q 2.7299,0 4.2386,3.9512 1.5087,3.9513 1.5087,10.9918 -3.8795,0 -7.8307,-0.2874 -3.9513,-0.2873 -7.1124,-1.4368 1.4369,-6.0347 3.9513,-9.6268 2.5145,-3.592 5.2445,-3.592 z m 26.294,-33.7656 q 3.4484,1.1494 6.825,2.8018 3.3765,1.6524 6.5375,3.5203 -0.1436,4.5978 -2.4426,8.0462 -2.2989,3.4484 -4.8852,3.4484 -6.0347,0 -6.0347,-17.8167 z m -9.6268,28.7366 q 3.0174,0 5.0289,3.9513 2.0116,3.9513 2.0116,10.9918 -3.5921,1.7242 -7.0405,2.8018 -3.4484,1.0776 -7.1841,1.5087 0,-19.2536 7.1841,-19.2536 z m 19.6846,-5.6036 q 3.4484,0 5.8192,2.9455 2.3708,2.9455 2.3708,7.5434 -1.8679,0.431 -6.6813,2.8736 -4.8134,2.4426 -9.4112,5.3163 0,-18.6788 7.9025,-18.6788 z m 10.6326,-12.0694 q 3.7357,2.8737 6.1065,5.891 2.37081,3.0174 4.23871,6.1784 -0.1437,2.5863 -1.8679,4.4542 -1.72421,1.8678 -3.59211,1.8678 -2.73,0 -4.0949,-4.2386 -1.365,-4.2387 -0.7903,-14.1528 z M 1136.074,384.79198 q 2.0116,0 4.8134,2.8018 2.8018,2.8018 6.2502,5.6037 3.4484,2.8018 7.1842,2.8018 4.5979,0 8.9084,-2.2271 4.3105,-2.2271 9.7704,-2.2271 1.2932,0 2.1553,0.4311 0.8621,0.431 0.8621,1.2931 0,2.0116 -3.5921,6.0347 -3.5921,4.0231 -8.3336,9.9141 -4.7416,5.8911 -8.3337,13.3626 -3.5921,7.4715 -3.5921,16.3799 0,8.3336 2.299,16.5235 2.2989,8.19 2.2989,17.242 0,5.46 -1.0058,10.5608 -1.0057,5.1007 -3.161,10.5607 5.7473,2.4426 13.147,8.2618 7.3997,5.8191 14.3683,13.2906 6.9687,7.4716 11.2792,14.6557 25.2882,8.4774 40.1595,16.4518 14.8711,7.9744 21.3369,17.0265 6.4657,9.052 6.4657,20.5467 0,17.673 -10.9917,27.8745 -10.9918,10.2015 -31.1074,10.2015 -10.7763,0 -18.8944,-1.6523 -8.1181,-1.6524 -8.1181,-3.9513 0,-1.8679 3.9513,-2.8019 3.9513,-0.9339 7.256,-1.5086 14.512,-2.1553 22.5583,-6.0347 8.0462,-3.8795 8.0462,-12.7878 0,-5.46 -4.8134,-10.0579 -4.8133,-4.5978 -12.6441,-7.256 -7.8307,-2.6581 -17.1701,-2.6581 -11.2073,0 -21.8399,3.8794 -10.6325,3.8795 -21.4088,8.9084 -10.7762,5.0289 -22.3427,8.9084 -11.5665,3.8794 -24.7854,3.8794 -9.4831,0 -18.0322,-2.8737 -8.5492,-2.8736 -19.3254,-9.1957 -10.2015,23.9951 -21.5525,40.3032 -11.351,16.308 -22.4146,22.0554 -2.0116,5.4599 -6.3939,8.7646 -4.3824,3.3047 -9.4113,3.3047 -4.7415,0 -8.4773,-2.5144 -3.73571,-2.5145 -4.31051,-6.6813 -10.2015,0 -17.3138,2.3708 -7.1123,2.3707 -12.8597,4.7415 -5.7473,2.3708 -12.0694,2.3708 -8.3336,0 -13.5062,-5.46 -5.1726,-5.4599 -5.1726,-13.5062 2.4426,1.0058 7.1842,1.7961 4.7415,0.7902 8.0463,0.7902 6.4657,0 14.5838,-3.4484 8.1181,-3.4484 16.8109,-8.0462 8.6929,-4.5979 16.8828,-8.0463 8.19001,-3.4484 14.65571,-3.4484 -5.891,-22.9893 -24.42611,-35.9208 -18.5352,-12.9315 -42.5303,-12.9315 1.8679,-7.0405 7.3279,-12.2131 5.4599,-5.1726 12.0693,-5.1726 6.3221,0 12.8597,2.8737 6.5376,2.8737 12.716,2.8737 3.0173,0 7.1123,-0.3592 4.09501,-0.3592 7.11231,-0.3592 30.0298,0 30.0298,33.0471 h 11.6384 q 0,-14.081 -4.3105,-23.3485 -4.3105,-9.2676 -14.081,-14.8713 3.4484,-4.0231 6.5376,-8.9802 3.0892,-4.957 6.6094,-12.1412 3.5203,-7.1842 8.1181,-18.1041 2.4426,4.8852 7.3279,7.1842 4.8852,2.2989 8.9083,2.2989 0,9.4831 3.664,18.8225 3.6639,9.3394 9.8423,17.242 l 8.7646,-6.7531 q -5.7473,-8.4773 -8.6928,-18.3915 -2.9455,-9.9141 -2.9455,-19.6846 -23.5641,0 -23.5641,-14.3683 0,-9.3394 7.4716,-9.3394 0.7184,0 1.9397,0.2155 1.2213,0.2155 2.2271,0.7903 0,-4.1668 1.8679,-6.9687 1.8679,-2.8018 5.891,-2.8018 5.0289,0 6.6094,3.8795 1.5805,3.8794 4.7415,5.7473 9.0521,5.6036 14.9431,14.5838 5.891,8.9802 9.3394,18.607 3.4484,9.6268 5.3163,17.0983 l 11.0636,-2.5863 q -5.3163,-21.2651 -12.716,-33.1908 -7.3996,-11.9257 -18.0322,-20.1157 -2.2989,-1.7242 -4.095,-4.0949 -1.796,-2.3708 -3.0892,-4.6697 4.5979,-2.299 9.1958,-3.5203 4.5978,-1.2213 8.9083,-1.2213 3.1611,0 6.9686,1.1495 3.8077,1.1494 11.7103,4.0231 0,-13.9373 2.1552,-22.8456 2.1552,-8.9084 4.3105,-15.3023 2.1552,-6.3939 2.1552,-13.0033 0,-7.4715 -3.7357,-12.716 -3.7358,-5.2444 -8.621,-8.8365 -4.8852,-3.5921 -8.621,-5.8192 -3.7358,-2.2271 -3.7358,-3.5202 0,-1.0058 2.1553,-1.6524 2.1552,-0.6466 9.7704,-0.6466 5.8911,0 8.4773,-2.8736 2.5863,-2.8737 3.8076,-5.7473 1.2214,-2.8737 3.2329,-2.8737 z m 1.1495,118.395 q -2.2989,0 -3.9513,2.1552 -1.6524,2.1553 -1.6524,5.0289 0,2.8737 1.6524,5.0289 1.6524,2.1553 3.9513,2.1553 2.4426,0 4.0231,-2.1553 1.5805,-2.1552 1.5805,-5.0289 0,-2.8736 -1.5805,-5.0289 -1.5805,-2.1552 -4.0231,-2.1552 z m -127.016,131.7575 q -3.161,0 -5.46,2.2989 -2.2989,2.299 -2.2989,5.46 0,3.161 2.2989,5.3881 2.299,2.2271 5.46,2.2271 3.3047,0 5.5318,-2.2271 2.2271,-2.2271 2.2271,-5.3881 0,-3.161 -2.2271,-5.46 -2.2271,-2.2989 -5.5318,-2.2989 z m 138.798,-109.0555 q -2.5863,0 -4.3105,2.4426 -1.7242,2.4426 -1.7242,5.8909 0,3.4485 1.7242,5.8911 1.7242,2.4426 4.3105,2.4426 2.5863,0 4.3105,-2.4426 1.7242,-2.4426 1.7242,-5.8911 0,-3.4483 -1.7242,-5.8909 -1.7242,-2.4426 -4.3105,-2.4426 z m -34.915,43.6796 -11.0636,2.5864 q 1.5805,6.7531 1.5805,12.0693 0,8.19 -3.161,16.9547 l 11.782,1.7242 q 1.2932,-4.5979 2.0116,-9.2676 0.7184,-4.6697 0.7184,-9.6986 0,-7.0405 -1.8679,-14.3684 z m 33.3345,-7.4715 -11.351,2.5863 q 0.5748,2.73 0.8621,5.2444 0.2874,2.5145 0.2874,4.9571 0,11.6384 -5.3163,22.4146 l 13.3626,-2.5863 q 3.4483,-9.6268 3.4483,-20.1156 0,-3.1611 -0.2873,-6.2503 -0.2874,-3.0891 -1.0058,-6.2502 z"
         style="display:inline;stroke-width:0.143683"
         inkscape:label="trex" />
    </g>
  </g>
</svg>
