<?xml version="1.0" encoding="UTF-8" standalone="no"?>
<svg
   version="1.1"
   id="svg7829"
   sodipodi:docname="unicorn.svg"
   width="512"
   height="512"
   inkscape:version="1.2.1 (9c6d41e4, 2022-07-14)"
   inkscape:export-filename="../images/brontosaurus.png"
   inkscape:export-xdpi="96"
   inkscape:export-ydpi="96"
   xmlns:inkscape="http://www.inkscape.org/namespaces/inkscape"
   xmlns:sodipodi="http://sodipodi.sourceforge.net/DTD/sodipodi-0.dtd"
   xmlns:xlink="http://www.w3.org/1999/xlink"
   xmlns="http://www.w3.org/2000/svg"
   xmlns:svg="http://www.w3.org/2000/svg">
  <defs
     id="defs7833">
    <linearGradient
       inkscape:collect="always"
       id="linearGradient19032">
      <stop
         style="stop-color:#ff92e9;stop-opacity:1;"
         offset="0"
         id="stop19028" />
      <stop
         style="stop-color:#dd50c1;stop-opacity:1;"
         offset="1"
         id="stop19030" />
    </linearGradient>
    <linearGradient
       id="linearGradient10200"
       inkscape:swatch="solid">
      <stop
         style="stop-color:#330000;stop-opacity:1;"
         offset="0"
         id="stop10198" />
    </linearGradient>
    <clipPath
       clipPathUnits="userSpaceOnUse"
       id="clipPath14496">
      <g
         inkscape:label="Clip"
         id="use14498" />
    </clipPath>
    <clipPath
       clipPathUnits="userSpaceOnUse"
       id="clipPath3156">
      <circle
         style="fill:#d78f00;stroke-width:0.377953;stop-color:#000000"
         id="circle3158"
         cx="256"
         cy="256"
         r="255"
         inkscape:label="Mask" />
    </clipPath>
    <clipPath
       clipPathUnits="userSpaceOnUse"
       id="clipPath3640">
      <circle
         style="display:inline;fill:#d78f00;stroke-width:0.377953;stop-color:#000000"
         id="circle3642"
         cx="256"
         cy="256"
         r="255"
         inkscape:label="Mask"
         sodipodi:insensitive="true" />
    </clipPath>
    <clipPath
       clipPathUnits="userSpaceOnUse"
       id="clipPath9033">
      <circle
         style="display:inline;fill:#d78f00;stroke-width:0.310085;stop-color:#000000"
         id="circle9035"
         cx="1086.217"
         cy="-543.19318"
         r="209.21024"
         inkscape:label="Mask"
         sodipodi:insensitive="true"
         transform="scale(1,-1)" />
    </clipPath>
    <clipPath
       clipPathUnits="userSpaceOnUse"
       id="clipPath12935">
      <circle
         style="display:inline;fill:#d78f00;stroke-width:0.277013;stop-color:#000000"
         id="circle12937"
         cx="1075.5178"
         cy="-546.80048"
         r="186.89703"
         inkscape:label="Mask"
         sodipodi:insensitive="true"
         transform="scale(1,-1)" />
    </clipPath>
    <clipPath
       clipPathUnits="userSpaceOnUse"
       id="clipPath18589">
      <circle
         style="display:inline;fill:#d78f00;stroke-width:0.377953;stop-color:#000000"
         id="circle18591"
         cx="256"
         cy="256"
         r="255"
         inkscape:label="Mask"
         sodipodi:insensitive="true" />
    </clipPath>
    <clipPath
       clipPathUnits="userSpaceOnUse"
       id="clipPath18768">
      <circle
         style="display:inline;fill:#d78f00;stroke-width:0.377953;stop-color:#000000"
         id="circle18770"
         cx="256"
         cy="256"
         r="255"
         inkscape:label="Mask"
         sodipodi:insensitive="true" />
    </clipPath>
    <clipPath
       clipPathUnits="userSpaceOnUse"
       id="clipPath18973">
      <circle
         style="display:inline;fill:#d78f00;stroke-width:0.246245;stop-color:#000000"
         id="circle18975"
         cx="1060.1678"
         cy="-559.06421"
         r="166.13805"
         inkscape:label="Mask"
         sodipodi:insensitive="true"
         transform="scale(1,-1)" />
    </clipPath>
    <radialGradient
       inkscape:collect="always"
       xlink:href="#linearGradient19032"
       id="radialGradient19036"
       cx="227.81381"
       cy="88.586334"
       fx="227.81381"
       fy="88.586334"
       r="323.63733"
       gradientTransform="matrix(0.66034311,0.52916454,-0.3854657,0.48102169,103.75278,0.99223947)"
       gradientUnits="userSpaceOnUse" />
  </defs>
  <sodipodi:namedview
     id="namedview7831"
     pagecolor="#ffffff"
     bordercolor="#000000"
     borderopacity="0.25"
     inkscape:showpageshadow="2"
     inkscape:pageopacity="0.0"
     inkscape:pagecheckerboard="0"
     inkscape:deskcolor="#d1d1d1"
     showgrid="true"
     inkscape:zoom="1.04"
     inkscape:cx="160.09615"
     inkscape:cy="187.01923"
     inkscape:window-width="1920"
     inkscape:window-height="977"
     inkscape:window-x="1280"
     inkscape:window-y="23"
     inkscape:window-maximized="0"
     inkscape:current-layer="layer3"
     inkscape:document-units="in">
    <inkscape:grid
       type="xygrid"
       id="grid2325"
       spacingx="16"
       spacingy="16"
       empspacing="4"
       originx="0"
       originy="0" />
  </sodipodi:namedview>
  <metadata
     id="metadata5952">
Created by FontForge 20201107 at Fri Sep  9 18:26:23 2022
 By Unknown
Copyright 2013, 2022 Google Inc. All Rights Reserved.
</metadata>
  <missing-path
     horiz-adv-x="1000"
     vert-adv-y="2600"
     d="M104 0v1400h792v-1400h-792zM194 78h612v1244h-612v-1244z" />
  <g
     inkscape:groupmode="layer"
     id="layer3"
     inkscape:label="Layer 1">
    <g
       id="g12146"
       transform="matrix(1.5348682,0,0,-1.5348682,-1371.218,1114.0899)"
       style="display:inline"
       inkscape:label="Unicorn"
       clip-path="url(#clipPath18973)">
      <rect
         style="fill:url(#radialGradient19036);fill-opacity:1;stroke-width:0.377953;stop-color:#000000"
         id="rect3728"
         width="647.27466"
         height="594.24164"
         x="-51.673187"
         y="-27.196415"
         transform="matrix(0.65152174,0,0,-0.65152174,893.37834,725.85379)" />
      <path
         style="display:inline;fill:#60ff00;fill-opacity:0.794326;stroke-width:10.9183;stop-color:#000000"
         d="m 1021.0561,611.30845 c 0,0 -14.5298,11.40804 -5.2505,12.79991 9.2794,1.39186 25.1569,15.04526 25.1569,15.04526 l 9.2526,-8.58592 c -7.9475,-8.78261 -17.6677,-15.20171 -29.159,-19.25925 z"
         id="path10196"
         sodipodi:nodetypes="csccc" />
      <path
         style="display:inline;fill:#ffe000;fill-opacity:0.794326;stroke-width:10.9183;stop-color:#000000"
         d="m 1017.2394,623.92305 -5.2925,11.46166 19.9122,12.95265 8.2921,-8.66619 c -6.2309,-7.71045 -14.3387,-12.13639 -22.9118,-15.74812 z"
         id="path10194"
         sodipodi:nodetypes="ccccc" />
      <path
         style="display:inline;fill:#ff801d;fill-opacity:0.794326;stroke-width:10.9183;stop-color:#000000"
         d="m 1011.8991,636.01661 c 0,0 -10.0488,12.05156 -7.7289,12.51548 2.3198,0.46403 16.8707,10.27024 16.8707,10.27024 l 10.2436,-10.28537 z"
         id="path10192"
         sodipodi:nodetypes="ccccc" />
      <path
         style="display:inline;fill:#e60000;fill-opacity:0.794326;stroke-width:10.9183;stop-color:#000000"
         d="m 1005.1937,648.92155 -10.34479,30.448 25.44359,-20.36668 z"
         id="path10190"
         sodipodi:nodetypes="cccc" />
      <path
         style="display:inline;fill:#ffeef9;fill-opacity:0.794326;stroke-width:10.9183;stop-color:#000000"
         d="m 1051.5578,393.20493 15.6699,92.22668 -52.8922,-2.78384 c -54.68817,-42.6125 -102.5946,6.50374 -45.93268,53.82013 40.63438,47.50204 73.88718,56.3899 96.96898,76.0905 -11.9598,26.58974 2.3807,55.68144 22.7344,61.70752 28.2047,-39.27237 105.6297,-249.76864 105.3204,-268.6366 -25.6473,-16.32163 -115.9877,-26.45441 -141.8688,-12.42439 z"
         id="path9918"
         sodipodi:nodetypes="cccccccc" />
      <path
         style="fill:#0079ff;fill-opacity:1;stroke-width:0.246245;stop-color:#000000"
         d="m 1022.1737,611.89812 c 16.1947,4.82573 24.0655,14.02548 27.5753,18.605 l 8.9703,-8.52729 c -6.8017,-10.07361 -17.8021,-16.74829 -30.7869,-21.81659 z"
         id="path3843"
         sodipodi:nodetypes="ccccc" />
      <path
         style="fill:#b600e6;fill-opacity:1;stroke-width:0.246245;stop-color:#000000"
         d="m 1027.4894,600.0485 c 16.1947,4.82573 27.2771,17.56929 30.7869,22.14881 l 9.7455,-8.52729 c -6.8017,-10.07361 -21.5674,-21.06731 -34.5522,-26.13561 z"
         id="path4547"
         sodipodi:nodetypes="ccccc" />
      <path
         id="u1F984"
         unicode="🦄"
         vert-adv-y="2600"
         d="m 971.97974,459.89018 c -10.22449,0 -18.57293,3.28307 -25.04531,9.8492 -6.47238,6.5662 -9.70857,15.24297 -9.70857,26.0303 0,9.0988 2.64992,17.35343 7.94977,24.7639 5.29985,7.4104 13.06201,14.4925 23.28649,21.2463 10.41209,12.75713 20.12066,23.38027 29.12573,31.8694 9.00505,8.48913 18.47905,15.40707 28.42215,20.7538 l -3.9397,-3.0955 -33.48753,79.7792 c -0.56281,1.3132 -1.03181,2.55607 -1.40701,3.7286 -0.37522,1.17253 -0.56283,2.3216 -0.56283,3.4472 0,2.72033 0.79733,4.94817 2.39198,6.6835 1.59463,1.73533 3.65828,2.603 6.19095,2.603 3.18929,0 6.70694,-1.78223 10.55284,-5.3467 l 49.5277,-45.7288 c 0.6567,4.22107 2.1106,8.84083 4.3619,13.8593 2.2513,5.01847 4.9246,9.77897 8.0201,14.2815 3.0955,4.50247 6.2144,8.20767 9.3568,11.1156 3.1424,2.90787 5.8861,4.3618 8.2312,4.3618 2.8141,0 5.933,-1.96987 9.3568,-5.9096 3.4238,-3.93967 6.7069,-8.93463 9.8493,-14.9849 3.1424,-6.05027 5.722,-12.33503 7.7387,-18.8543 2.0167,-6.51933 3.0251,-12.35857 3.0251,-17.5177 l -11.8191,1.407 c 0,4.97153 -0.6801,10.0838 -2.0402,15.3368 -1.3601,5.25293 -3.0486,10.08377 -5.0654,14.4925 -2.0167,4.40867 -4.01,7.97317 -5.9799,10.6935 -1.9698,2.72027 -3.6113,4.0804 -4.9246,4.0804 -1.7823,0 -3.7756,-1.4305 -5.9799,-4.2915 -2.2043,-2.861 -4.2914,-6.4724 -6.2613,-10.8342 -1.9699,-4.3618 -3.6114,-8.84087 -4.9247,-13.4372 -1.3132,-4.59633 -1.9698,-8.58297 -1.9698,-11.9599 0,-1.6884 0.5863,-3.93963 1.7588,-6.7537 1.1725,-2.81407 3.3534,-5.48747 6.5427,-8.0202 -6.3786,-7.2228 -13.3903,-13.3434 -21.0352,-18.3618 -7.6449,-5.01847 -15.4071,-8.74713 -23.2865,-11.186 -8.4423,-4.59633 -16.7673,-10.76383 -24.975,-18.5025 -8.20773,-7.73873 -17.93975,-18.5026 -29.19605,-32.2916 -9.66167,-6.19093 -16.67342,-12.26467 -21.03525,-18.2212 -4.36182,-5.9564 -6.54273,-12.3584 -6.54273,-19.206 0,-7.5042 2.13401,-13.53103 6.40203,-18.0805 4.26802,-4.5494 9.96653,-6.8241 17.09554,-6.8241 12.94475,0 26.03023,6.09717 39.25646,18.2915 3.2831,-0.2814 6.3785,-0.44557 9.2864,-0.4925 2.9079,-0.0467 5.8157,-0.07 8.7236,-0.07 12.3819,0 22.9113,0.68007 31.588,2.0402 8.6768,1.36013 15.9465,3.6114 21.8092,6.7538 5.8627,3.1424 10.7404,7.38697 14.6332,12.7337 3.8928,5.34673 7.2462,11.9598 10.0603,19.8392 l 10.5528,-3.6583 c -4.6901,-13.31993 -10.8108,-23.4975 -18.3619,-30.5327 -7.5511,-7.0352 -17.0486,-11.81913 -28.4925,-14.3518 -11.4439,-2.53267 -25.3736,-3.799 -41.7891,-3.799 -2.2513,0 -4.5494,0.0233 -6.8944,0.07 -2.3451,0.0467 -4.7371,0.11703 -7.176,0.2111 -6.9414,-5.8158 -14.1642,-10.27143 -21.66837,-13.3669 -7.50422,-3.09547 -14.68012,-4.6432 -21.52769,-4.6432 z m 15.19602,38.975 c -1.21943,0 -2.15746,0.82077 -2.81409,2.4623 -0.65663,1.64153 -1.40705,3.68173 -2.25126,6.1206 -0.56281,1.68847 -1.10217,3.21277 -1.61808,4.5729 -0.51594,1.36013 -0.77391,2.4623 -0.77391,3.3065 0,1.87607 1.17254,2.8141 3.51762,2.8141 2.34505,0 4.45561,-1.196 6.33167,-3.588 1.87606,-2.39193 2.81409,-5.08873 2.81409,-8.0904 0,-2.06367 -0.51592,-3.84593 -1.54777,-5.3468 -1.03182,-1.5008 -2.25124,-2.2512 -3.65827,-2.2512 z M 1121.548,387.84978 c -14.5394,0 -27.1923,-18.55552 -38.4017,-17.57058 -11.2094,0.98493 -29.4805,2.93133 -35.7653,5.8392 -6.2848,2.90786 -0.1247,26.27075 -0.1247,31.99268 0,1.12567 0.3987,4.19773 1.196,9.2162 0.7973,5.0184 1.8526,11.16247 3.1658,18.4322 1.3133,7.26967 2.7907,14.93803 4.4322,23.0051 1.6415,8.067 3.3065,15.7119 4.995,22.9347 l 12.1006,2.2513 c -1.7823,-7.59807 -3.5645,-15.59477 -5.3468,-23.9901 -1.7823,-8.39533 -3.3535,-16.3451 -4.7136,-23.8493 -1.3601,-7.5042 -2.4623,-13.8124 -3.3065,-18.9246 -0.8443,-5.11227 -1.2664,-8.13743 -1.2664,-9.0755 0,-1.5008 -3.9504,-17.10651 0.5521,-18.46664 4.5026,-1.36014 16.2698,-8.46595 25.5563,-9.35709 9.2864,-0.89113 22.4814,18.81873 36.927,18.81873 15.0084,0 27.3434,0.42213 37.0051,1.2664 9.6617,0.8442 16.8141,1.89947 21.4574,3.1658 4.6432,1.26633 6.9648,2.5561 6.9648,3.8693 0,9.00507 -0.5628,18.61983 -1.6884,28.8443 l 11.1156,0.8442 c 0.5628,-5.06533 1.0084,-10.0603 1.3367,-14.9849 0.3283,-4.92467 0.4924,-9.82587 0.4924,-14.7036 0,-5.72193 -3.3065,-9.9665 -9.9196,-12.7337 -6.6131,-2.76713 -15.6885,-4.59627 -27.2262,-5.4874 -11.5377,-0.89113 -24.717,-1.3367 -39.5378,-1.3367 z m -64.0203,154.3522 c -2.9079,0 -5.4171,1.28977 -7.5276,3.8693 -2.1106,2.5796 -3.1659,5.69857 -3.1659,9.3569 0,3.65827 1.0553,6.75373 3.1659,9.2864 2.1105,2.53267 4.6197,3.799 7.5276,3.799 2.9079,0 5.3936,-1.2898 7.4573,-3.8694 2.0637,-2.57953 3.0955,-5.65153 3.0955,-9.216 0,-3.65833 -1.0318,-6.7773 -3.0955,-9.3569 -2.0637,-2.57953 -4.5494,-3.8693 -7.4573,-3.8693 z m -35.7388,47.4172 -7.3166,13.6483 c -1.5008,2.90787 -3.3299,5.0653 -5.4874,6.4723 -2.1575,1.40707 -4.2211,2.1106 -6.191,2.1106 -2.6265,0 -4.94811,-0.91457 -6.96486,-2.7437 -2.01675,-1.8292 -3.02513,-4.47913 -3.02513,-7.9498 0,-2.72027 -1.00838,-5.01843 -3.02513,-6.8945 -2.01677,-1.87607 -4.33839,-2.8141 -6.96485,-2.8141 -4.12732,0 -7.34006,1.82917 -9.63822,5.4875 -2.29815,3.65827 -3.44723,8.06697 -3.44723,13.2261 0,9.38027 3.40034,17.56457 10.20101,24.5529 6.8007,6.98827 15.5478,11.60803 26.24131,13.8593 l 19.5579,-55.578 z m -6.9405,32.13985 -0.8806,3.11478 c 11.5377,3.84587 19.4445,8.09942 27.0425,17.85489 l 2.7043,-1.59048 c -8.6298,-11.25633 -15.0772,-14.68906 -28.8662,-19.37919 z m -5.0591,12.34727 -0.3459,3.53089 c 9.3803,3.09547 15.3341,6.4019 20.4085,14.57057 l 2.3833,-2.59214 c -6.6261,-8.8096 -11.2235,-11.74024 -22.4459,-15.50932 z m 23.4411,-42.98912 c 5.2529,1.5946 11.6263,4.09989 17.3482,8.18036 5.722,4.0804 11.332,9.67081 14.6151,13.89188 l -63.2441,59.16366 c -0.3752,0.469 -0.9614,0.49233 -1.7587,0.07 -0.79736,-0.42213 -1.00843,-1.0553 -0.63321,-1.8995 z m -29.122,56.19865 -1.4461,3.80911 c 7.043,1.22855 12.7429,4.19243 16.2136,10.44205 l 3.5695,-1.66218 c -5.0654,-7.69187 -9.332,-10.33778 -18.337,-12.58898 z m 56.2334,-26.31975 -38.8343,35.5981 c 1.0318,0.0938 2.1105,0.16417 3.2362,0.2111 1.1257,0.0467 2.2513,0.07 3.3769,0.07 5.5343,0 10.9514,-0.68003 16.2513,-2.0401 5.2999,-1.3602 10.248,-3.40043 14.8443,-6.1207 z m 137.6084,-213.3071 c -0.8442,0.0938 -2.2278,0.39867 -4.1508,0.9146 -1.9229,0.51593 -3.7286,1.50087 -5.4171,2.9548 -1.6884,1.45393 -2.5326,3.58793 -2.5326,6.402 0,5.9096 -1.8995,11.16257 -5.6985,15.7589 -3.799,4.59633 -8.5126,9.3099 -14.1408,14.1407 -5.6281,4.83087 -11.2563,10.48247 -16.8844,16.9548 -5.6282,6.4724 -10.3418,14.39873 -14.1408,23.779 -3.799,9.38027 -5.6985,21.01177 -5.6985,34.8945 0,6.7538 0.8911,13.4607 2.6734,20.1207 -6.8476,0 -13.32,2.29817 -19.4171,6.8945 -6.0972,4.59633 -11.0453,10.48243 -14.8443,17.6583 -3.799,7.17593 -5.6985,14.5629 -5.6985,22.1609 0,4.40873 0.8677,8.72367 2.603,12.9448 1.7353,4.22107 4.3853,8.06697 7.9498,11.5377 0.5628,2.72027 0.8442,5.25293 0.8442,7.598 0,2.15747 -0.1173,4.92463 -0.3518,8.3015 -0.2345,3.37693 -0.7269,6.51933 -1.4774,9.4272 1.7823,-1.68847 4.4791,-3.02517 8.0905,-4.0101 3.6114,-0.98493 7.1525,-1.4774 10.6232,-1.4774 4.5025,0 8.3953,0.93803 11.6784,2.8141 3.2831,1.87607 4.9246,4.22113 4.9246,7.0352 0,2.43887 -0.4925,4.26803 -1.4774,5.4875 -0.9849,1.2194 -1.9698,2.1574 -2.9547,2.814 -0.9849,0.65667 -1.4774,1.3602 -1.4774,2.1106 0,1.3132 0.7504,2.41537 2.2512,3.3065 1.5009,0.89113 3.7521,1.3367 6.7538,1.3367 5.5343,0 10.2714,-1.8526 14.2111,-5.5578 3.9397,-3.7052 5.9096,-8.18427 5.9096,-13.4372 0,-3.47073 -0.8442,-6.80073 -2.5327,-9.99 -1.6885,-3.18927 -3.8459,-6.19093 -6.4724,-9.005 6.2848,0 11.9599,-1.78227 17.0252,-5.3468 5.0653,-3.56447 9.0988,-8.1608 12.1005,-13.789 3.0017,-5.62813 4.5026,-11.6315 4.5026,-18.0101 0,-4.40867 -0.7504,-8.67667 -2.2513,-12.804 4.5963,0 8.0201,0.6097 10.2714,1.8291 2.2513,1.21947 3.3769,3.42383 3.3769,6.6131 0,1.59467 -0.3283,2.9548 -0.985,4.0804 -0.6566,1.12567 -0.9849,2.0637 -0.9849,2.8141 0,1.21947 0.7504,1.8292 2.2513,1.8292 4.9715,0 9.3802,-2.8141 13.2261,-8.4423 3.8459,-5.62813 5.7689,-12.1943 5.7689,-19.6985 0,-4.59633 -0.9849,-9.38027 -2.9548,-14.3518 -1.9698,-4.97153 -4.7839,-9.09887 -8.4422,-12.382 14.4456,-11.72533 21.6684,-26.21783 21.6684,-43.4775 0,-13.789 -4.8308,-29.07883 -14.4925,-45.8695 -2.0637,-3.56447 -4.1039,-7.809 -6.1206,-12.7336 -2.0168,-4.92467 -3.7053,-9.6148 -5.0654,-14.0704 -1.3601,-4.45567 -2.0402,-7.80913 -2.0402,-10.0604 z"
         style="display:inline;fill:#000000;fill-opacity:1;stroke-width:0.140704"
         sodipodi:nodetypes="sssscscccssssccsccscssccsssssscsccsccccsssccssssccsssscsssscsssssssssssscsccssssssssssccsssssssscssssscccscssssscccccccccccccccccccccccccccccsccccsssscssscsssscsccssssscsssssscscscsscsscsscscssc" />
      <path
         style="fill:#000000;fill-opacity:1;stroke-width:0.246245;stop-color:#000000"
         d="m 1020.6233,613.55928 c 15.9353,3.68048 22.2097,10.39611 27.5753,18.49426 l 2.7686,-2.32562 c -5.8508,-9.12568 -16.0579,-16.39013 -29.7902,-19.60171 z"
         id="path3785"
         sodipodi:nodetypes="ccccc" />
      <path
         style="fill:#000000;fill-opacity:1;stroke-width:0.246245;stop-color:#000000"
         d="m 1026.1605,601.59892 c 15.9353,3.68048 25.3105,13.71843 30.6761,21.81658 l 2.7686,-2.54711 c -5.8508,-9.12568 -19.1587,-18.93724 -32.891,-22.14882 z"
         id="path3787"
         sodipodi:nodetypes="ccccc" />
    </g>
  </g>
</svg>
